<?xml version="1.0" encoding="UTF-8" standalone="no"?>
<!DOCTYPE svg PUBLIC "-//W3C//DTD SVG 1.1//EN"
 "http://www.w3.org/Graphics/SVG/1.1/DTD/svg11.dtd">
<!-- Generated by graphviz version 2.38.0 (20140413.2041)
 -->
<!-- Title: command_base Pages: 1 -->
<svg width="598pt" height="175pt"
 viewBox="0.00 0.00 597.89 175.50" xmlns="http://www.w3.org/2000/svg" xmlns:xlink="http://www.w3.org/1999/xlink">
<g id="graph0" class="graph" transform="scale(1 1) rotate(0) translate(4 171.497)">
<title>command_base</title>
<!-- Down -->
<g id="node1" class="node"><title>Down</title>
<ellipse fill="none" stroke="black" cx="36.4971" cy="-36.4971" rx="32.4945" ry="32.4945"/>
<ellipse fill="none" stroke="black" cx="36.4971" cy="-36.4971" rx="36.4942" ry="36.4942"/>
<text text-anchor="middle" x="36.4971" y="-32.7971" font-family="Times,serif" font-size="14.00">Down</text>
</g>
<!-- Trying -->
<g id="node2" class="node"><title>Trying</title>
<ellipse fill="none" stroke="black" cx="312.994" cy="-115.497" rx="34.394" ry="34.394"/>
<text text-anchor="middle" x="312.994" y="-111.797" font-family="Times,serif" font-size="14.00">Trying</text>
</g>
<!-- Down&#45;&gt;Trying -->
<g id="edge1" class="edge"><title>Down&#45;&gt;Trying</title>
<path fill="none" stroke="black" d="M56.8369,-67.2329C65.759,-78.7362 77.4038,-90.661 90.9942,-97.4971 147.424,-125.882 222.311,-125.274 268.81,-121.179"/>
<polygon fill="black" stroke="black" points="269.24,-124.654 278.853,-120.201 268.561,-117.687 269.24,-124.654"/>
<g id="a_edge1&#45;label"><a xlink:title="Tooltip">
<text text-anchor="start" x="135.994" y="-156.297" font-family="Times,serif" font-size="14.00">Connect</text>
<text text-anchor="start" x="145.994" y="-141.297" font-family="Times,serif" font-size="14.00" fill="Red">Start</text>
<text text-anchor="start" x="90.9942" y="-126.297" font-family="Times,serif" font-size="14.00" fill="Blue">Start Command Channel</text>
</a>
</g>
</g>
<!-- Trying&#45;&gt;Down -->
<g id="edge3" class="edge"><title>Trying&#45;&gt;Down</title>
<path fill="none" stroke="black" d="M282.59,-98.6965C269.933,-90.4536 255.632,-79.6743 244.994,-67.4971 233.745,-54.6203 241.642,-42.3164 226.994,-33.4971 182.948,-6.97776 122.072,-13.95 81.3209,-23.4087"/>
<polygon fill="black" stroke="black" points="80.2894,-20.0581 71.4166,-25.8481 81.9635,-26.8549 80.2894,-20.0581"/>
<g id="a_edge3&#45;label"><a xlink:title="Tooltip">
<text text-anchor="start" x="128.494" y="-82.2971" font-family="Times,serif" font-size="14.00">Disconnect</text>
<text text-anchor="start" x="146.494" y="-67.2971" font-family="Times,serif" font-size="14.00" fill="Red">Stop</text>
<text text-anchor="start" x="90.9942" y="-52.2971" font-family="Times,serif" font-size="14.00" fill="Blue">Stop Command Channel</text>
<text text-anchor="start" x="113.494" y="-37.2971" font-family="Times,serif" font-size="14.00" fill="Blue">Clear Connected</text>
</a>
</g>
</g>
<!-- Up -->
<g id="node3" class="node"><title>Up</title>
<ellipse fill="none" stroke="black" cx="568.442" cy="-47.4971" rx="21.3963" ry="21.3963"/>
<text text-anchor="middle" x="568.442" y="-43.7971" font-family="Times,serif" font-size="14.00">Up</text>
</g>
<!-- Trying&#45;&gt;Up -->
<g id="edge2" class="edge"><title>Trying&#45;&gt;Up</title>
<path fill="none" stroke="black" d="M347.53,-119.535C391.828,-123.27 471.005,-124.3 528.994,-93.4971 537.635,-88.9074 545.114,-81.4863 551.119,-73.9318"/>
<polygon fill="black" stroke="black" points="553.978,-75.9517 557.043,-65.8098 548.322,-71.827 553.978,-75.9517"/>
<g id="a_edge2&#45;label"><a xlink:title="Tooltip">
<text text-anchor="start" x="424.494" y="-154.297" font-family="Times,serif" font-size="14.00">Command Up</text>
<text text-anchor="start" x="409.494" y="-139.297" font-family="Times,serif" font-size="14.00" fill="Red">Command State Up</text>
<text text-anchor="start" x="424.494" y="-124.297" font-family="Times,serif" font-size="14.00" fill="Blue">Set Connected</text>
</a>
</g>
</g>
<!-- Up&#45;&gt;Down -->
<g id="edge5" class="edge"><title>Up&#45;&gt;Down</title>
<path fill="none" stroke="black" d="M550.113,-36.0873C543.724,-32.4152 536.267,-28.7238 528.994,-26.4971 465.818,-7.15392 446.992,-15.6117 380.994,-12.4971 252.229,-6.42046 217.658,6.4507 90.9942,-17.4971 87.3928,-18.178 83.7088,-19.062 80.0423,-20.0758"/>
<polygon fill="black" stroke="black" points="78.9845,-16.7392 70.446,-23.0118 81.0325,-23.4329 78.9845,-16.7392"/>
<g id="a_edge5&#45;label"><a xlink:title="Tooltip">
<text text-anchor="start" x="282.494" y="-61.2971" font-family="Times,serif" font-size="14.00">Disconnect</text>
<text text-anchor="start" x="300.494" y="-46.2971" font-family="Times,serif" font-size="14.00" fill="Red">Stop</text>
<text text-anchor="start" x="244.994" y="-31.2971" font-family="Times,serif" font-size="14.00" fill="Blue">Stop Command Channel</text>
<text text-anchor="start" x="267.494" y="-16.2971" font-family="Times,serif" font-size="14.00" fill="Blue">Clear Connected</text>
</a>
</g>
</g>
<!-- Up&#45;&gt;Trying -->
<g id="edge4" class="edge"><title>Up&#45;&gt;Trying</title>
<path fill="none" stroke="black" d="M547.781,-41.6709C515.022,-33.1163 448.033,-20.6043 398.994,-44.4971 387.325,-50.1826 390.365,-58.5151 380.994,-67.4971 371.955,-76.1607 361.268,-84.5096 351.115,-91.7467"/>
<polygon fill="black" stroke="black" points="348.979,-88.9689 342.761,-97.5469 352.971,-94.7191 348.979,-88.9689"/>
<g id="a_edge4&#45;label"><a xlink:title="Tooltip">
<text text-anchor="start" x="414.494" y="-78.2971" font-family="Times,serif" font-size="14.00">Command Trying</text>
<text text-anchor="start" x="398.994" y="-63.2971" font-family="Times,serif" font-size="14.00" fill="Red">Command State Trying</text>
<text text-anchor="start" x="418.494" y="-48.2971" font-family="Times,serif" font-size="14.00" fill="Blue">Clear Connected</text>
</a>
</g>
</g>
</g>
</svg>
