<?xml version="1.0" encoding="UTF-8" standalone="no"?>
<!DOCTYPE svg PUBLIC "-//W3C//DTD SVG 1.1//EN"
 "http://www.w3.org/Graphics/SVG/1.1/DTD/svg11.dtd">
<!-- Generated by graphviz version 2.38.0 (20140413.2041)
 -->
<!-- Title: config_base Pages: 1 -->
<svg width="1233pt" height="491pt"
 viewBox="0.00 0.00 1233.48 491.00" xmlns="http://www.w3.org/2000/svg" xmlns:xlink="http://www.w3.org/1999/xlink">
<g id="graph0" class="graph" transform="scale(1 1) rotate(0) translate(4 487)">
<title>config_base</title>
<!-- Down -->
<g id="node1" class="node"><title>Down</title>
<ellipse fill="none" stroke="black" cx="36.4971" cy="-136" rx="32.4945" ry="32.4945"/>
<ellipse fill="none" stroke="black" cx="36.4971" cy="-136" rx="36.4942" ry="36.4942"/>
<text text-anchor="middle" x="36.4971" y="-132.3" font-family="Times,serif" font-size="14.00">Down</text>
</g>
<!-- Trying -->
<g id="node2" class="node"><title>Trying</title>
<ellipse fill="none" stroke="black" cx="308.494" cy="-226" rx="34.394" ry="34.394"/>
<text text-anchor="middle" x="308.494" y="-222.3" font-family="Times,serif" font-size="14.00">Trying</text>
</g>
<!-- Down&#45;&gt;Trying -->
<g id="edge1" class="edge"><title>Down&#45;&gt;Trying</title>
<path fill="none" stroke="black" d="M52.2302,-169.148C61.0817,-184.951 73.9645,-202.452 90.9942,-212 144.904,-242.226 218.653,-239.456 264.659,-233.57"/>
<polygon fill="black" stroke="black" points="265.176,-237.032 274.601,-232.195 264.216,-230.099 265.176,-237.032"/>
<g id="a_edge1&#45;label"><a xlink:title="Tooltip">
<text text-anchor="start" x="134.494" y="-286.8" font-family="Times,serif" font-size="14.00">Connect</text>
<text text-anchor="start" x="144.494" y="-271.8" font-family="Times,serif" font-size="14.00" fill="Red">Start</text>
<text text-anchor="start" x="131.994" y="-256.8" font-family="Times,serif" font-size="14.00" fill="Blue">Add Pins</text>
<text text-anchor="start" x="93.9942" y="-241.8" font-family="Times,serif" font-size="14.00" fill="Blue">Start Halrcmd Channel</text>
</a>
</g>
</g>
<!-- Trying&#45;&gt;Down -->
<g id="edge3" class="edge"><title>Trying&#45;&gt;Down</title>
<path fill="none" stroke="black" d="M290.518,-196.392C276.017,-174.34 252.926,-145.906 223.994,-133 178.93,-112.898 121.435,-117.79 82.2752,-125.044"/>
<polygon fill="black" stroke="black" points="81.3692,-121.655 72.2382,-127.029 82.7273,-128.522 81.3692,-121.655"/>
<g id="a_edge3&#45;label"><a xlink:title="Tooltip">
<text text-anchor="start" x="126.994" y="-196.8" font-family="Times,serif" font-size="14.00">Disconnect</text>
<text text-anchor="start" x="144.994" y="-181.8" font-family="Times,serif" font-size="14.00" fill="Red">Stop</text>
<text text-anchor="start" x="94.4942" y="-166.8" font-family="Times,serif" font-size="14.00" fill="Blue">Stop Halrcmd Channel</text>
<text text-anchor="start" x="90.9942" y="-151.8" font-family="Times,serif" font-size="14.00" fill="Blue">Stop Halrcomp Channel</text>
<text text-anchor="start" x="115.994" y="-136.8" font-family="Times,serif" font-size="14.00" fill="Blue">Unsync Config</text>
</a>
</g>
</g>
<!-- Listing -->
<g id="node3" class="node"><title>Listing</title>
<ellipse fill="none" stroke="black" cx="638.494" cy="-322" rx="35.9954" ry="35.9954"/>
<text text-anchor="middle" x="638.494" y="-318.3" font-family="Times,serif" font-size="14.00">Listing</text>
</g>
<!-- Trying&#45;&gt;Listing -->
<g id="edge2" class="edge"><title>Trying&#45;&gt;Listing</title>
<path fill="none" stroke="black" d="M343.188,-229.067C405.706,-234.915 535.057,-247.805 553.994,-256 563.551,-260.136 563.885,-264.467 571.994,-271 581.551,-278.699 591.998,-286.92 601.685,-294.462"/>
<polygon fill="black" stroke="black" points="599.561,-297.245 609.607,-300.613 603.854,-291.716 599.561,-297.245"/>
<g id="a_edge2&#45;label"><a xlink:title="Tooltip">
<text text-anchor="start" x="444.494" y="-289.8" font-family="Times,serif" font-size="14.00">Config Up</text>
<text text-anchor="start" x="428.994" y="-274.8" font-family="Times,serif" font-size="14.00" fill="Red">Config State Up</text>
<text text-anchor="start" x="392.994" y="-259.8" font-family="Times,serif" font-size="14.00" fill="Blue">Send Config List Application</text>
</a>
</g>
</g>
<!-- Listing&#45;&gt;Down -->
<g id="edge6" class="edge"><title>Listing&#45;&gt;Down</title>
<path fill="none" stroke="black" d="M609.326,-342.676C593.836,-352.76 573.787,-363.812 553.994,-369 352.867,-421.716 244.723,-441.995 90.9942,-302 57.6391,-271.625 44.9886,-220.378 40.2407,-182.843"/>
<polygon fill="black" stroke="black" points="43.6904,-182.198 39.1005,-172.649 36.7338,-182.976 43.6904,-182.198"/>
<g id="a_edge6&#45;label"><a xlink:title="Tooltip">
<text text-anchor="start" x="277.994" y="-471.8" font-family="Times,serif" font-size="14.00">Disconnect</text>
<text text-anchor="start" x="295.994" y="-456.8" font-family="Times,serif" font-size="14.00" fill="Red">Stop</text>
<text text-anchor="start" x="245.494" y="-441.8" font-family="Times,serif" font-size="14.00" fill="Blue">Stop Halrcmd Channel</text>
<text text-anchor="start" x="241.994" y="-426.8" font-family="Times,serif" font-size="14.00" fill="Blue">Stop Halrcomp Channel</text>
<text text-anchor="start" x="266.994" y="-411.8" font-family="Times,serif" font-size="14.00" fill="Blue">Unsync Config</text>
</a>
</g>
</g>
<!-- Listing&#45;&gt;Trying -->
<g id="edge5" class="edge"><title>Listing&#45;&gt;Trying</title>
<path fill="none" stroke="black" d="M602.684,-321.711C544.377,-320.782 429.743,-316.918 392.994,-301 371.943,-291.882 352.594,-275.287 337.833,-260.022"/>
<polygon fill="black" stroke="black" points="340.353,-257.592 330.969,-252.673 335.238,-262.37 340.353,-257.592"/>
<g id="a_edge5&#45;label"><a xlink:title="Tooltip">
<text text-anchor="start" x="433.994" y="-354.8" font-family="Times,serif" font-size="14.00">Config Trying</text>
<text text-anchor="start" x="418.994" y="-339.8" font-family="Times,serif" font-size="14.00" fill="Red">Config State Trying</text>
<text text-anchor="start" x="431.994" y="-324.8" font-family="Times,serif" font-size="14.00" fill="Blue">Unsync Config</text>
</a>
</g>
</g>
<!-- Up -->
<g id="node4" class="node"><title>Up</title>
<ellipse fill="none" stroke="black" cx="932.442" cy="-222" rx="21.3963" ry="21.3963"/>
<text text-anchor="middle" x="932.442" y="-218.3" font-family="Times,serif" font-size="14.00">Up</text>
</g>
<!-- Listing&#45;&gt;Up -->
<g id="edge4" class="edge"><title>Listing&#45;&gt;Up</title>
<path fill="none" stroke="black" d="M672.794,-310.964C721.329,-294.82 814.297,-263.673 892.994,-236 896.077,-234.916 899.293,-233.77 902.495,-232.618"/>
<polygon fill="black" stroke="black" points="903.703,-235.903 911.913,-229.206 901.319,-229.322 903.703,-235.903"/>
<g id="a_edge4&#45;label"><a xlink:title="Tooltip">
<text text-anchor="start" x="747.494" y="-327.8" font-family="Times,serif" font-size="14.00">Application Retrieved</text>
<text text-anchor="start" x="722.994" y="-312.8" font-family="Times,serif" font-size="14.00" fill="Red">Describe Application Received</text>
<text text-anchor="start" x="773.494" y="-297.8" font-family="Times,serif" font-size="14.00" fill="Blue">Sync Config</text>
</a>
</g>
</g>
<!-- Up&#45;&gt;Down -->
<g id="edge9" class="edge"><title>Up&#45;&gt;Down</title>
<path fill="none" stroke="black" d="M922.628,-202.725C916.146,-190.792 906.175,-176.225 892.994,-168 703.288,-49.6212 616.598,-110.149 392.994,-112 258.758,-113.111 223.092,-93.111 90.9942,-117 87.3875,-117.652 83.6998,-118.516 80.0307,-119.516"/>
<polygon fill="black" stroke="black" points="78.9829,-116.176 70.4302,-122.429 81.0157,-122.874 78.9829,-116.176"/>
<g id="a_edge9&#45;label"><a xlink:title="Tooltip">
<text text-anchor="start" x="442.994" y="-175.8" font-family="Times,serif" font-size="14.00">Disconnect</text>
<text text-anchor="start" x="460.994" y="-160.8" font-family="Times,serif" font-size="14.00" fill="Red">Stop</text>
<text text-anchor="start" x="410.494" y="-145.8" font-family="Times,serif" font-size="14.00" fill="Blue">Stop Halrcmd Channel</text>
<text text-anchor="start" x="406.994" y="-130.8" font-family="Times,serif" font-size="14.00" fill="Blue">Stop Halrcomp Channel</text>
<text text-anchor="start" x="431.994" y="-115.8" font-family="Times,serif" font-size="14.00" fill="Blue">Unsync Config</text>
</a>
</g>
</g>
<!-- Up&#45;&gt;Trying -->
<g id="edge7" class="edge"><title>Up&#45;&gt;Trying</title>
<path fill="none" stroke="black" d="M910.894,-222.132C822.94,-222.698 477.065,-224.922 353.592,-225.716"/>
<polygon fill="black" stroke="black" points="353.352,-222.218 343.375,-225.782 353.397,-229.218 353.352,-222.218"/>
<g id="a_edge7&#45;label"><a xlink:title="Tooltip">
<text text-anchor="start" x="598.994" y="-258.8" font-family="Times,serif" font-size="14.00">Config Trying</text>
<text text-anchor="start" x="583.994" y="-243.8" font-family="Times,serif" font-size="14.00" fill="Red">Config State Trying</text>
<text text-anchor="start" x="596.994" y="-228.8" font-family="Times,serif" font-size="14.00" fill="Blue">Unsync Config</text>
</a>
</g>
</g>
<!-- Loading -->
<g id="node5" class="node"><title>Loading</title>
<ellipse fill="none" stroke="black" cx="1185.19" cy="-178" rx="40.0939" ry="40.0939"/>
<text text-anchor="middle" x="1185.19" y="-174.3" font-family="Times,serif" font-size="14.00">Loading</text>
</g>
<!-- Up&#45;&gt;Loading -->
<g id="edge8" class="edge"><title>Up&#45;&gt;Loading</title>
<path fill="none" stroke="black" d="M949.279,-208.612C955.861,-203.792 963.837,-198.845 971.89,-196 1025.17,-177.179 1090.45,-174.41 1134.44,-175.238"/>
<polygon fill="black" stroke="black" points="1134.51,-178.741 1144.6,-175.5 1134.69,-171.743 1134.51,-178.741"/>
<g id="a_edge8&#45;label"><a xlink:title="Tooltip">
<text text-anchor="start" x="1001.39" y="-214.8" font-family="Times,serif" font-size="14.00">Load Application</text>
<text text-anchor="start" x="978.39" y="-199.8" font-family="Times,serif" font-size="14.00" fill="Red">Retrieve Application Sent</text>
</a>
</g>
</g>
<!-- Loading&#45;&gt;Down -->
<g id="edge12" class="edge"><title>Loading&#45;&gt;Down</title>
<path fill="none" stroke="black" d="M1160.79,-145.766C1120.58,-94.4708 1033.01,-0 933.442,-0 307.494,-0 307.494,-0 307.494,-0 214.274,-0 120.441,-65.4644 71.7178,-105.555"/>
<polygon fill="black" stroke="black" points="69.4362,-102.9 64.0078,-111.999 73.9253,-108.272 69.4362,-102.9"/>
<g id="a_edge12&#45;label"><a xlink:title="Tooltip">
<text text-anchor="start" x="607.994" y="-63.8" font-family="Times,serif" font-size="14.00">Disconnect</text>
<text text-anchor="start" x="625.994" y="-48.8" font-family="Times,serif" font-size="14.00" fill="Red">Stop</text>
<text text-anchor="start" x="575.494" y="-33.8" font-family="Times,serif" font-size="14.00" fill="Blue">Stop Halrcmd Channel</text>
<text text-anchor="start" x="571.994" y="-18.8" font-family="Times,serif" font-size="14.00" fill="Blue">Stop Halrcomp Channel</text>
<text text-anchor="start" x="596.994" y="-3.8" font-family="Times,serif" font-size="14.00" fill="Blue">Unsync Config</text>
</a>
</g>
</g>
<!-- Loading&#45;&gt;Trying -->
<g id="edge11" class="edge"><title>Loading&#45;&gt;Trying</title>
<path fill="none" stroke="black" d="M1144.74,-176.486C1138.76,-176.297 1132.66,-176.125 1126.89,-176 1022.96,-173.742 996.951,-174.444 892.994,-174 817.439,-173.677 798.402,-169.277 722.994,-174 587.127,-182.51 427.614,-206.6 352.604,-218.771"/>
<polygon fill="black" stroke="black" points="351.897,-215.34 342.592,-220.407 353.026,-222.249 351.897,-215.34"/>
<g id="a_edge11&#45;label"><a xlink:title="Tooltip">
<text text-anchor="start" x="768.494" y="-207.8" font-family="Times,serif" font-size="14.00">Config Trying</text>
<text text-anchor="start" x="753.494" y="-192.8" font-family="Times,serif" font-size="14.00" fill="Red">Config State Trying</text>
<text text-anchor="start" x="766.494" y="-177.8" font-family="Times,serif" font-size="14.00" fill="Blue">Unsync Config</text>
</a>
</g>
</g>
<!-- Loading&#45;&gt;Up -->
<g id="edge10" class="edge"><title>Loading&#45;&gt;Up</title>
<path fill="none" stroke="black" d="M1157.29,-207.088C1148.44,-214.734 1137.99,-221.966 1126.89,-226 1072.06,-245.932 1002.59,-236.979 963.583,-229.159"/>
<polygon fill="black" stroke="black" points="963.933,-225.656 953.425,-227.009 962.484,-232.504 963.933,-225.656"/>
<g id="a_edge10&#45;label"><a xlink:title="Tooltip">
<text text-anchor="start" x="994.89" y="-257.8" font-family="Times,serif" font-size="14.00">Application Loaded</text>
<text text-anchor="start" x="971.89" y="-242.8" font-family="Times,serif" font-size="14.00" fill="Red">Application Detail Received</text>
</a>
</g>
</g>
</g>
</svg>
