<?xml version="1.0" encoding="UTF-8" standalone="no"?>
<!DOCTYPE svg PUBLIC "-//W3C//DTD SVG 1.1//EN"
 "http://www.w3.org/Graphics/SVG/1.1/DTD/svg11.dtd">
<!-- Generated by graphviz version 2.38.0 (20140413.2041)
 -->
<!-- Title: error_base Pages: 1 -->
<svg width="509pt" height="187pt"
 viewBox="0.00 0.00 508.89 187.50" xmlns="http://www.w3.org/2000/svg" xmlns:xlink="http://www.w3.org/1999/xlink">
<g id="graph0" class="graph" transform="scale(1 1) rotate(0) translate(4 183.497)">
<title>error_base</title>
<!-- Down -->
<g id="node1" class="node"><title>Down</title>
<ellipse fill="none" stroke="black" cx="36.4971" cy="-36.4971" rx="32.4945" ry="32.4945"/>
<ellipse fill="none" stroke="black" cx="36.4971" cy="-36.4971" rx="36.4942" ry="36.4942"/>
<text text-anchor="middle" x="36.4971" y="-32.7971" font-family="Times,serif" font-size="14.00">Down</text>
</g>
<!-- Trying -->
<g id="node2" class="node"><title>Trying</title>
<ellipse fill="none" stroke="black" cx="268.994" cy="-115.497" rx="34.394" ry="34.394"/>
<text text-anchor="middle" x="268.994" y="-111.797" font-family="Times,serif" font-size="14.00">Trying</text>
</g>
<!-- Down&#45;&gt;Trying -->
<g id="edge1" class="edge"><title>Down&#45;&gt;Trying</title>
<path fill="none" stroke="black" d="M56.9064,-67.0965C65.8391,-78.5788 77.4731,-90.5249 90.9942,-97.4971 132.649,-118.977 187.107,-121.317 224.557,-119.661"/>
<polygon fill="black" stroke="black" points="224.854,-123.15 234.644,-119.1 224.465,-116.161 224.854,-123.15"/>
<g id="a_edge1&#45;label"><a xlink:title="Tooltip">
<text text-anchor="start" x="121.494" y="-168.297" font-family="Times,serif" font-size="14.00">Connect</text>
<text text-anchor="start" x="131.494" y="-153.297" font-family="Times,serif" font-size="14.00" fill="Red">Start</text>
<text text-anchor="start" x="104.494" y="-138.297" font-family="Times,serif" font-size="14.00" fill="Blue">Update Topics</text>
<text text-anchor="start" x="90.9942" y="-123.297" font-family="Times,serif" font-size="14.00" fill="Blue">Start Error Channel</text>
</a>
</g>
</g>
<!-- Trying&#45;&gt;Down -->
<g id="edge3" class="edge"><title>Trying&#45;&gt;Down</title>
<path fill="none" stroke="black" d="M241.682,-94.3548C232.872,-86.4966 223.414,-77.1346 215.994,-67.4971 205.563,-53.9494 212.642,-42.3164 197.994,-33.4971 163.158,-12.5231 115.896,-16.4317 81.688,-23.6726"/>
<polygon fill="black" stroke="black" points="80.4846,-20.3576 71.519,-26.0029 82.0482,-27.1808 80.4846,-20.3576"/>
<g id="a_edge3&#45;label"><a xlink:title="Tooltip">
<text text-anchor="start" x="113.994" y="-82.2971" font-family="Times,serif" font-size="14.00">Disconnect</text>
<text text-anchor="start" x="131.994" y="-67.2971" font-family="Times,serif" font-size="14.00" fill="Red">Stop</text>
<text text-anchor="start" x="91.4942" y="-52.2971" font-family="Times,serif" font-size="14.00" fill="Blue">Stop Error Channel</text>
<text text-anchor="start" x="98.9942" y="-37.2971" font-family="Times,serif" font-size="14.00" fill="Blue">Clear Connected</text>
</a>
</g>
</g>
<!-- Up -->
<g id="node3" class="node"><title>Up</title>
<ellipse fill="none" stroke="black" cx="479.442" cy="-47.4971" rx="21.3963" ry="21.3963"/>
<text text-anchor="middle" x="479.442" y="-43.7971" font-family="Times,serif" font-size="14.00">Up</text>
</g>
<!-- Trying&#45;&gt;Up -->
<g id="edge2" class="edge"><title>Trying&#45;&gt;Up</title>
<path fill="none" stroke="black" d="M303.5,-118.109C339.469,-119.395 397.201,-116.966 439.994,-93.4971 448.573,-88.7924 456.035,-81.3407 462.045,-73.7936"/>
<polygon fill="black" stroke="black" points="464.893,-75.8277 467.979,-65.6923 459.246,-71.691 464.893,-75.8277"/>
<g id="a_edge2&#45;label"><a xlink:title="Tooltip">
<text text-anchor="start" x="365.494" y="-151.297" font-family="Times,serif" font-size="14.00">Error Up</text>
<text text-anchor="start" x="349.994" y="-136.297" font-family="Times,serif" font-size="14.00" fill="Red">Error State Up</text>
<text text-anchor="start" x="350.494" y="-121.297" font-family="Times,serif" font-size="14.00" fill="Blue">Set Connected</text>
</a>
</g>
</g>
<!-- Up&#45;&gt;Down -->
<g id="edge5" class="edge"><title>Up&#45;&gt;Down</title>
<path fill="none" stroke="black" d="M460.557,-37.1577C454.241,-33.9163 446.972,-30.6316 439.994,-28.4971 389.385,-13.0151 374.798,-16.0608 321.994,-12.4971 219.537,-5.58247 191.825,1.95958 90.9942,-17.4971 87.3954,-18.1916 83.7132,-19.0852 80.0479,-20.1055"/>
<polygon fill="black" stroke="black" points="78.9854,-16.7704 70.4538,-23.0522 81.0407,-23.4619 78.9854,-16.7704"/>
<g id="a_edge5&#45;label"><a xlink:title="Tooltip">
<text text-anchor="start" x="238.494" y="-61.2971" font-family="Times,serif" font-size="14.00">Disconnect</text>
<text text-anchor="start" x="256.494" y="-46.2971" font-family="Times,serif" font-size="14.00" fill="Red">Stop</text>
<text text-anchor="start" x="215.994" y="-31.2971" font-family="Times,serif" font-size="14.00" fill="Blue">Stop Error Channel</text>
<text text-anchor="start" x="223.494" y="-16.2971" font-family="Times,serif" font-size="14.00" fill="Blue">Clear Connected</text>
</a>
</g>
</g>
<!-- Up&#45;&gt;Trying -->
<g id="edge4" class="edge"><title>Up&#45;&gt;Trying</title>
<path fill="none" stroke="black" d="M458.431,-41.611C430.372,-34.5254 378.465,-25.7531 339.994,-44.4971 328.325,-50.1826 330.792,-57.9528 321.994,-67.4971 316.129,-73.8602 309.555,-80.3556 303.105,-86.4288"/>
<polygon fill="black" stroke="black" points="300.607,-83.9717 295.642,-93.331 305.36,-89.1108 300.607,-83.9717"/>
<g id="a_edge4&#45;label"><a xlink:title="Tooltip">
<text text-anchor="start" x="354.994" y="-78.2971" font-family="Times,serif" font-size="14.00">Error Trying</text>
<text text-anchor="start" x="339.994" y="-63.2971" font-family="Times,serif" font-size="14.00" fill="Red">Error State Trying</text>
<text text-anchor="start" x="344.494" y="-48.2971" font-family="Times,serif" font-size="14.00" fill="Blue">Clear Connected</text>
</a>
</g>
</g>
</g>
</svg>
