<?xml version="1.0" encoding="UTF-8" standalone="no"?>
<!DOCTYPE svg PUBLIC "-//W3C//DTD SVG 1.1//EN"
 "http://www.w3.org/Graphics/SVG/1.1/DTD/svg11.dtd">
<!-- Generated by graphviz version 2.38.0 (20140413.2041)
 -->
<!-- Title: error_subscribe Pages: 1 -->
<svg width="714pt" height="282pt"
 viewBox="0.00 0.00 713.89 281.55" xmlns="http://www.w3.org/2000/svg" xmlns:xlink="http://www.w3.org/1999/xlink">
<g id="graph0" class="graph" transform="scale(1 1) rotate(0) translate(4 277.55)">
<title>error_subscribe</title>
<!-- Down -->
<g id="node1" class="node"><title>Down</title>
<ellipse fill="none" stroke="black" cx="36.4971" cy="-115.55" rx="32.4945" ry="32.4945"/>
<ellipse fill="none" stroke="black" cx="36.4971" cy="-115.55" rx="36.4942" ry="36.4942"/>
<text text-anchor="middle" x="36.4971" y="-111.85" font-family="Times,serif" font-size="14.00">Down</text>
</g>
<!-- Trying -->
<g id="node2" class="node"><title>Trying</title>
<ellipse fill="none" stroke="black" cx="287.494" cy="-196.55" rx="34.394" ry="34.394"/>
<text text-anchor="middle" x="287.494" y="-192.85" font-family="Times,serif" font-size="14.00">Trying</text>
</g>
<!-- Down&#45;&gt;Trying -->
<g id="edge1" class="edge"><title>Down&#45;&gt;Trying</title>
<path fill="none" stroke="black" d="M56.9085,-146.145C65.8415,-157.627 77.4752,-169.573 90.9942,-176.55 138.65,-201.141 201.485,-203.075 242.894,-200.903"/>
<polygon fill="black" stroke="black" points="243.177,-204.392 252.938,-200.274 242.739,-197.406 243.177,-204.392"/>
<g id="a_edge1&#45;label"><a xlink:title="Tooltip">
<text text-anchor="start" x="127.494" y="-234.35" font-family="Times,serif" font-size="14.00">Connect</text>
<text text-anchor="start" x="137.494" y="-219.35" font-family="Times,serif" font-size="14.00" fill="Red">Start</text>
<text text-anchor="start" x="104.994" y="-204.35" font-family="Times,serif" font-size="14.00" fill="Blue">Connect Sockets</text>
</a>
</g>
</g>
<!-- Trying&#45;&gt;Down -->
<g id="edge3" class="edge"><title>Trying&#45;&gt;Down</title>
<path fill="none" stroke="black" d="M259.192,-176.793C248.616,-168.274 236.93,-157.708 227.994,-146.55 217.306,-133.204 224.642,-121.369 209.994,-112.55 171.411,-89.3194 118.643,-94.413 81.6633,-102.572"/>
<polygon fill="black" stroke="black" points="80.6029,-99.2263 71.6768,-104.934 82.2139,-106.038 80.6029,-99.2263"/>
<g id="a_edge3&#45;label"><a xlink:title="Tooltip">
<text text-anchor="start" x="119.994" y="-161.35" font-family="Times,serif" font-size="14.00">Disconnect</text>
<text text-anchor="start" x="137.994" y="-146.35" font-family="Times,serif" font-size="14.00" fill="Red">Stop</text>
<text text-anchor="start" x="90.9942" y="-131.35" font-family="Times,serif" font-size="14.00" fill="Blue">Stop Heartbeat Timer</text>
<text text-anchor="start" x="96.9942" y="-116.35" font-family="Times,serif" font-size="14.00" fill="Blue">Disconnect Sockets</text>
</a>
</g>
</g>
<!-- Up -->
<g id="node3" class="node"><title>Up</title>
<ellipse fill="none" stroke="black" cx="524.442" cy="-115.55" rx="21.3963" ry="21.3963"/>
<text text-anchor="middle" x="524.442" y="-111.85" font-family="Times,serif" font-size="14.00">Up</text>
</g>
<!-- Trying&#45;&gt;Up -->
<g id="edge2" class="edge"><title>Trying&#45;&gt;Up</title>
<path fill="none" stroke="black" d="M320.973,-205.187C362.485,-214.244 434.954,-223.198 484.994,-191.55 500.828,-181.535 510.407,-162.817 516.044,-146.463"/>
<polygon fill="black" stroke="black" points="519.457,-147.273 519.064,-136.686 512.769,-145.207 519.457,-147.273"/>
<g id="a_edge2&#45;label"><a xlink:title="Tooltip">
<text text-anchor="start" x="395.994" y="-262.35" font-family="Times,serif" font-size="14.00">Connected</text>
<text text-anchor="start" x="385.494" y="-247.35" font-family="Times,serif" font-size="14.00" fill="Red">Ping Received</text>
<text text-anchor="start" x="365.494" y="-232.35" font-family="Times,serif" font-size="14.00" fill="Blue">Reset Heartbeat Error</text>
<text text-anchor="start" x="364.994" y="-217.35" font-family="Times,serif" font-size="14.00" fill="Blue">Start Heartbeat Timer</text>
</a>
</g>
</g>
<!-- Up&#45;&gt;Down -->
<g id="edge9" class="edge"><title>Up&#45;&gt;Down</title>
<path fill="none" stroke="black" d="M505.682,-104.756C499.377,-101.478 492.081,-98.2866 484.994,-96.5496 314.917,-54.8648 263.226,-64.9276 90.9942,-96.5496 87.3893,-97.2115 83.7028,-98.082 80.0345,-99.0866"/>
<polygon fill="black" stroke="black" points="78.9834,-95.7479 70.4355,-102.008 81.0213,-102.445 78.9834,-95.7479"/>
<g id="a_edge9&#45;label"><a xlink:title="Tooltip">
<text text-anchor="start" x="256.994" y="-122.35" font-family="Times,serif" font-size="14.00">Disconnect</text>
<text text-anchor="start" x="274.994" y="-107.35" font-family="Times,serif" font-size="14.00" fill="Red">Stop</text>
<text text-anchor="start" x="227.994" y="-92.3496" font-family="Times,serif" font-size="14.00" fill="Blue">Stop Heartbeat Timer</text>
<text text-anchor="start" x="233.994" y="-77.3496" font-family="Times,serif" font-size="14.00" fill="Blue">Disconnect Sockets</text>
</a>
</g>
</g>
<!-- Up&#45;&gt;Trying -->
<g id="edge4" class="edge"><title>Up&#45;&gt;Trying</title>
<path fill="none" stroke="black" d="M503.959,-109.003C472.271,-99.6253 408.718,-86.2244 364.994,-112.55 350.346,-121.369 357.682,-133.204 346.994,-146.55 340.222,-155.006 331.871,-163.121 323.621,-170.264"/>
<polygon fill="black" stroke="black" points="321.232,-167.699 315.796,-176.793 325.717,-173.073 321.232,-167.699"/>
<g id="a_edge4&#45;label"><a xlink:title="Tooltip">
<text text-anchor="start" x="401.494" y="-176.35" font-family="Times,serif" font-size="14.00">Timeout</text>
<text text-anchor="start" x="373.494" y="-161.35" font-family="Times,serif" font-size="14.00" fill="Red">Heartbeat Timeout</text>
<text text-anchor="start" x="365.494" y="-146.35" font-family="Times,serif" font-size="14.00" fill="Blue">Stop Heartbeat Timer</text>
<text text-anchor="start" x="371.494" y="-131.35" font-family="Times,serif" font-size="14.00" fill="Blue">Disconnect Sockets</text>
<text text-anchor="start" x="379.494" y="-116.35" font-family="Times,serif" font-size="14.00" fill="Blue">Connect Sockets</text>
</a>
</g>
</g>
<!-- uptickup -->
<g id="node4" class="node"><title>uptickup</title>
<ellipse fill="black" stroke="black" cx="705.89" cy="-162.55" rx="0" ry="0"/>
</g>
<!-- Up&#45;&gt;uptickup -->
<g id="edge5" class="edge"><title>Up&#45;&gt;uptickup:n</title>
<path fill="none" stroke="black" d="M531.841,-135.989C537.646,-150.714 547.8,-169.519 563.89,-178.55 619.233,-209.609 705.89,-227.012 705.89,-163.55"/>
</g>
<!-- upmessage_receivedup -->
<g id="node5" class="node"><title>upmessage_receivedup</title>
<ellipse fill="black" stroke="black" cx="705.89" cy="-62.5496" rx="0" ry="0"/>
</g>
<!-- Up&#45;&gt;upmessage_receivedup -->
<g id="edge7" class="edge"><title>Up&#45;&gt;upmessage_receivedup:n</title>
<path fill="none" stroke="black" d="M546.083,-113.521C584.248,-109.481 664.127,-99.5959 687.89,-85.5496 698.766,-79.1211 705.89,-76.1831 705.89,-63.5496"/>
</g>
<!-- uptickup&#45;&gt;Up -->
<g id="edge6" class="edge"><title>uptickup:s&#45;&gt;Up</title>
<path fill="none" stroke="black" d="M705.89,-161.55C705.89,-145.232 701.609,-138.385 687.89,-129.55 666.809,-115.972 597.102,-114.482 556.171,-114.852"/>
<polygon fill="black" stroke="black" points="555.895,-111.355 545.942,-114.989 555.988,-118.355 555.895,-111.355"/>
<g id="a_edge6&#45;label"><a xlink:title="Tooltip">
<text text-anchor="start" x="613.39" y="-163.35" font-family="Times,serif" font-size="14.00">Tick</text>
<text text-anchor="start" x="584.89" y="-148.35" font-family="Times,serif" font-size="14.00" fill="Red">Heartbeat Tick</text>
<text text-anchor="start" x="563.89" y="-133.35" font-family="Times,serif" font-size="14.00" fill="Blue">Reset Heartbeat Timer</text>
</a>
</g>
</g>
<!-- upmessage_receivedup&#45;&gt;Up -->
<g id="edge8" class="edge"><title>upmessage_receivedup:s&#45;&gt;Up</title>
<path fill="none" stroke="black" d="M705.89,-61.5496C705.89,4.1395 618.36,16.1671 563.89,-20.5496 542.875,-34.7156 533.343,-62.5288 529.021,-84.4165"/>
<polygon fill="black" stroke="black" points="525.568,-83.8457 527.335,-94.2921 532.468,-85.0238 525.568,-83.8457"/>
<g id="a_edge8&#45;label"><a xlink:title="Tooltip">
<text text-anchor="start" x="574.39" y="-69.3496" font-family="Times,serif" font-size="14.00">Message Received</text>
<text text-anchor="start" x="595.39" y="-54.3496" font-family="Times,serif" font-size="14.00" fill="Red">* Received</text>
<text text-anchor="start" x="566.39" y="-39.3496" font-family="Times,serif" font-size="14.00" fill="Blue">Reset Heartbeat Error</text>
<text text-anchor="start" x="563.89" y="-24.3496" font-family="Times,serif" font-size="14.00" fill="Blue">Reset Heartbeat Timer</text>
</a>
</g>
</g>
</g>
</svg>
