<?xml version="1.0" encoding="UTF-8" standalone="no"?>
<!DOCTYPE svg PUBLIC "-//W3C//DTD SVG 1.1//EN"
 "http://www.w3.org/Graphics/SVG/1.1/DTD/svg11.dtd">
<!-- Generated by graphviz version 2.38.0 (20140413.2041)
 -->
<!-- Title: launcher_base Pages: 1 -->
<svg width="992pt" height="292pt"
 viewBox="0.00 0.00 991.79 291.77" xmlns="http://www.w3.org/2000/svg" xmlns:xlink="http://www.w3.org/1999/xlink">
<g id="graph0" class="graph" transform="scale(1 1) rotate(0) translate(4 287.766)">
<title>launcher_base</title>
<!-- Down -->
<g id="node1" class="node"><title>Down</title>
<ellipse fill="none" stroke="black" cx="36.4971" cy="-93.766" rx="32.4945" ry="32.4945"/>
<ellipse fill="none" stroke="black" cx="36.4971" cy="-93.766" rx="36.4942" ry="36.4942"/>
<text text-anchor="middle" x="36.4971" y="-90.066" font-family="Times,serif" font-size="14.00">Down</text>
</g>
<!-- Trying -->
<g id="node2" class="node"><title>Trying</title>
<ellipse fill="none" stroke="black" cx="339.494" cy="-204.766" rx="34.394" ry="34.394"/>
<text text-anchor="middle" x="339.494" y="-201.066" font-family="Times,serif" font-size="14.00">Trying</text>
</g>
<!-- Down&#45;&gt;Trying -->
<g id="edge1" class="edge"><title>Down&#45;&gt;Trying</title>
<path fill="none" stroke="black" d="M48.1493,-128.419C56.394,-149.005 70.014,-173.592 90.9942,-186.766 153.419,-225.963 242.954,-220.807 295.478,-213.075"/>
<polygon fill="black" stroke="black" points="296.134,-216.515 305.47,-211.506 295.049,-209.599 296.134,-216.515"/>
<g id="a_edge1&#45;label"><a xlink:title="Tooltip">
<text text-anchor="start" x="144.994" y="-252.566" font-family="Times,serif" font-size="14.00">Connect</text>
<text text-anchor="start" x="154.994" y="-237.566" font-family="Times,serif" font-size="14.00" fill="Red">Start</text>
<text text-anchor="start" x="90.9942" y="-222.566" font-family="Times,serif" font-size="14.00" fill="Blue">Start Launchercmd Channel</text>
</a>
</g>
</g>
<!-- Trying&#45;&gt;Down -->
<g id="edge3" class="edge"><title>Trying&#45;&gt;Down</title>
<path fill="none" stroke="black" d="M307.489,-191.008C292.298,-182.924 274.787,-171.4 262.994,-156.766 248.437,-138.701 263.561,-121.678 244.994,-107.766 220.412,-89.346 136.838,-89.2275 83.5526,-91.2192"/>
<polygon fill="black" stroke="black" points="83.1732,-87.7318 73.3259,-91.6409 83.4616,-94.7259 83.1732,-87.7318"/>
<g id="a_edge3&#45;label"><a xlink:title="Tooltip">
<text text-anchor="start" x="137.494" y="-171.566" font-family="Times,serif" font-size="14.00">Disconnect</text>
<text text-anchor="start" x="155.494" y="-156.566" font-family="Times,serif" font-size="14.00" fill="Red">Stop</text>
<text text-anchor="start" x="91.4942" y="-141.566" font-family="Times,serif" font-size="14.00" fill="Blue">Stop Launchercmd Channel</text>
<text text-anchor="start" x="103.494" y="-126.566" font-family="Times,serif" font-size="14.00" fill="Blue">Stop Launcher Channel</text>
<text text-anchor="start" x="128.494" y="-111.566" font-family="Times,serif" font-size="14.00" fill="Blue">Unsync Status</text>
</a>
</g>
</g>
<!-- Syncing -->
<g id="node3" class="node"><title>Syncing</title>
<ellipse fill="none" stroke="black" cx="678.494" cy="-110.766" rx="39.7935" ry="39.7935"/>
<text text-anchor="middle" x="678.494" y="-107.066" font-family="Times,serif" font-size="14.00">Syncing</text>
</g>
<!-- Trying&#45;&gt;Syncing -->
<g id="edge2" class="edge"><title>Trying&#45;&gt;Syncing</title>
<path fill="none" stroke="black" d="M371.327,-190.867C386.472,-182.745 403.995,-171.231 415.994,-156.766 429.747,-140.187 416.182,-123.879 433.994,-111.766 464.479,-91.0354 566.448,-98.0877 628.348,-104.689"/>
<polygon fill="black" stroke="black" points="628.344,-108.209 638.667,-105.824 629.11,-101.251 628.344,-108.209"/>
<g id="a_edge2&#45;label"><a xlink:title="Tooltip">
<text text-anchor="start" x="462.494" y="-145.566" font-family="Times,serif" font-size="14.00">Launchercmd Up</text>
<text text-anchor="start" x="446.994" y="-130.566" font-family="Times,serif" font-size="14.00" fill="Red">Launchercmd State Up</text>
<text text-anchor="start" x="445.494" y="-115.566" font-family="Times,serif" font-size="14.00" fill="Blue">Start Launcher Channel</text>
</a>
</g>
</g>
<!-- Syncing&#45;&gt;Down -->
<g id="edge6" class="edge"><title>Syncing&#45;&gt;Down</title>
<path fill="none" stroke="black" d="M639.341,-102.901C623.251,-99.8765 604.279,-96.6902 586.994,-94.766 401.021,-74.0625 177.444,-84.498 83.0655,-90.5093"/>
<polygon fill="black" stroke="black" points="82.7561,-87.0219 73.0049,-91.1648 83.2113,-94.0071 82.7561,-87.0219"/>
<g id="a_edge6&#45;label"><a xlink:title="Tooltip">
<text text-anchor="start" x="308.994" y="-147.566" font-family="Times,serif" font-size="14.00">Disconnect</text>
<text text-anchor="start" x="326.994" y="-132.566" font-family="Times,serif" font-size="14.00" fill="Red">Stop</text>
<text text-anchor="start" x="262.994" y="-117.566" font-family="Times,serif" font-size="14.00" fill="Blue">Stop Launchercmd Channel</text>
<text text-anchor="start" x="274.994" y="-102.566" font-family="Times,serif" font-size="14.00" fill="Blue">Stop Launcher Channel</text>
<text text-anchor="start" x="299.994" y="-87.566" font-family="Times,serif" font-size="14.00" fill="Blue">Unsync Status</text>
</a>
</g>
</g>
<!-- Syncing&#45;&gt;Trying -->
<g id="edge4" class="edge"><title>Syncing&#45;&gt;Trying</title>
<path fill="none" stroke="black" d="M644.22,-130.93C627.577,-140.158 606.802,-150.427 586.994,-156.766 521.502,-177.726 501.315,-165.752 433.994,-179.766 416.966,-183.311 398.421,-188.077 382.37,-192.496"/>
<polygon fill="black" stroke="black" points="381.423,-189.127 372.734,-195.189 383.307,-195.868 381.423,-189.127"/>
<g id="a_edge4&#45;label"><a xlink:title="Tooltip">
<text text-anchor="start" x="452.494" y="-213.566" font-family="Times,serif" font-size="14.00">Launchercmd Trying</text>
<text text-anchor="start" x="436.994" y="-198.566" font-family="Times,serif" font-size="14.00" fill="Red">Launchercmd State Trying</text>
<text text-anchor="start" x="445.994" y="-183.566" font-family="Times,serif" font-size="14.00" fill="Blue">Stop Launcher Channel</text>
</a>
</g>
</g>
<!-- Synced -->
<g id="node4" class="node"><title>Synced</title>
<ellipse fill="none" stroke="black" cx="947.391" cy="-110.766" rx="36.2938" ry="36.2938"/>
<text text-anchor="middle" x="947.391" y="-107.066" font-family="Times,serif" font-size="14.00">Synced</text>
</g>
<!-- Syncing&#45;&gt;Synced -->
<g id="edge5" class="edge"><title>Syncing&#45;&gt;Synced</title>
<path fill="none" stroke="black" d="M714.809,-94.6307C731.22,-87.9889 751.22,-81.0822 769.994,-77.766 823.828,-68.2573 840.408,-62.8278 892.994,-77.766 898.367,-79.2922 903.728,-81.5299 908.868,-84.133"/>
<polygon fill="black" stroke="black" points="907.396,-87.3199 917.834,-89.1387 910.808,-81.2079 907.396,-87.3199"/>
<g id="a_edge5&#45;label"><a xlink:title="Tooltip">
<text text-anchor="start" x="795.494" y="-111.566" font-family="Times,serif" font-size="14.00">Launcher Up</text>
<text text-anchor="start" x="779.994" y="-96.566" font-family="Times,serif" font-size="14.00" fill="Red">Launcher State Up</text>
<text text-anchor="start" x="799.494" y="-81.566" font-family="Times,serif" font-size="14.00" fill="Blue">Sync Status</text>
</a>
</g>
</g>
<!-- Synced&#45;&gt;Down -->
<g id="edge9" class="edge"><title>Synced&#45;&gt;Down</title>
<path fill="none" stroke="black" d="M921.742,-84.8375C913.296,-77.3102 903.347,-69.7771 892.994,-64.766 768.326,-4.42192 724.871,-18.9368 586.994,-5.766 365.12,15.4287 307.793,-28.0377 90.9942,-79.766 88.0089,-80.4783 84.9349,-81.231 81.8409,-82.003"/>
<polygon fill="black" stroke="black" points="80.8063,-78.6545 71.9753,-84.508 82.5291,-85.4392 80.8063,-78.6545"/>
<g id="a_edge9&#45;label"><a xlink:title="Tooltip">
<text text-anchor="start" x="479.994" y="-69.566" font-family="Times,serif" font-size="14.00">Disconnect</text>
<text text-anchor="start" x="497.994" y="-54.566" font-family="Times,serif" font-size="14.00" fill="Red">Stop</text>
<text text-anchor="start" x="433.994" y="-39.566" font-family="Times,serif" font-size="14.00" fill="Blue">Stop Launchercmd Channel</text>
<text text-anchor="start" x="445.994" y="-24.566" font-family="Times,serif" font-size="14.00" fill="Blue">Stop Launcher Channel</text>
<text text-anchor="start" x="470.994" y="-9.566" font-family="Times,serif" font-size="14.00" fill="Blue">Unsync Status</text>
</a>
</g>
</g>
<!-- Synced&#45;&gt;Trying -->
<g id="edge8" class="edge"><title>Synced&#45;&gt;Trying</title>
<path fill="none" stroke="black" d="M927.937,-141.938C918.961,-154.406 907.055,-167.698 892.994,-175.766 773.531,-244.314 724.293,-213.843 586.994,-224.766 519.208,-230.159 501.617,-231.918 433.994,-224.766 417.203,-222.99 398.993,-219.468 383.144,-215.868"/>
<polygon fill="black" stroke="black" points="383.644,-212.39 373.108,-213.508 382.042,-219.204 383.644,-212.39"/>
<g id="a_edge8&#45;label"><a xlink:title="Tooltip">
<text text-anchor="start" x="620.494" y="-272.566" font-family="Times,serif" font-size="14.00">Launchercmd Trying</text>
<text text-anchor="start" x="604.994" y="-257.566" font-family="Times,serif" font-size="14.00" fill="Red">Launchercmd State Trying</text>
<text text-anchor="start" x="613.994" y="-242.566" font-family="Times,serif" font-size="14.00" fill="Blue">Stop Launcher Channel</text>
<text text-anchor="start" x="638.994" y="-227.566" font-family="Times,serif" font-size="14.00" fill="Blue">Unsync Status</text>
</a>
</g>
</g>
<!-- Synced&#45;&gt;Syncing -->
<g id="edge7" class="edge"><title>Synced&#45;&gt;Syncing</title>
<path fill="none" stroke="black" d="M911.824,-119.7C905.596,-120.976 899.133,-122.085 892.994,-122.766 838.661,-128.796 824.542,-126.367 769.994,-122.766 756.258,-121.859 741.424,-120.186 727.819,-118.372"/>
<polygon fill="black" stroke="black" points="728.08,-114.874 717.694,-116.967 727.118,-121.808 728.08,-114.874"/>
<g id="a_edge7&#45;label"><a xlink:title="Tooltip">
<text text-anchor="start" x="785.494" y="-160.566" font-family="Times,serif" font-size="14.00">Launcher Trying</text>
<text text-anchor="start" x="769.994" y="-145.566" font-family="Times,serif" font-size="14.00" fill="Red">Launcher State Trying</text>
<text text-anchor="start" x="791.994" y="-130.566" font-family="Times,serif" font-size="14.00" fill="Blue">Unsync Status</text>
</a>
</g>
</g>
</g>
</svg>
