<?xml version="1.0" encoding="UTF-8" standalone="no"?>
<!DOCTYPE svg PUBLIC "-//W3C//DTD SVG 1.1//EN"
 "http://www.w3.org/Graphics/SVG/1.1/DTD/svg11.dtd">
<!-- Generated by graphviz version 2.38.0 (20140413.2041)
 -->
<!-- Title: status_base Pages: 1 -->
<svg width="524pt" height="188pt"
 viewBox="0.00 0.00 523.89 188.50" xmlns="http://www.w3.org/2000/svg" xmlns:xlink="http://www.w3.org/1999/xlink">
<g id="graph0" class="graph" transform="scale(1 1) rotate(0) translate(4 184.497)">
<title>status_base</title>
<!-- Down -->
<g id="node1" class="node"><title>Down</title>
<ellipse fill="none" stroke="black" cx="36.4971" cy="-36.4971" rx="32.4945" ry="32.4945"/>
<ellipse fill="none" stroke="black" cx="36.4971" cy="-36.4971" rx="36.4942" ry="36.4942"/>
<text text-anchor="middle" x="36.4971" y="-32.7971" font-family="Times,serif" font-size="14.00">Down</text>
</g>
<!-- Trying -->
<g id="node2" class="node"><title>Trying</title>
<ellipse fill="none" stroke="black" cx="276.494" cy="-115.497" rx="34.394" ry="34.394"/>
<text text-anchor="middle" x="276.494" y="-111.797" font-family="Times,serif" font-size="14.00">Trying</text>
</g>
<!-- Down&#45;&gt;Trying -->
<g id="edge1" class="edge"><title>Down&#45;&gt;Trying</title>
<path fill="none" stroke="black" d="M56.8922,-67.1242C65.8227,-78.6109 77.4589,-90.5526 90.9942,-97.4971 135.154,-120.154 193.065,-122.045 232.133,-119.968"/>
<polygon fill="black" stroke="black" points="232.376,-123.46 242.132,-119.328 231.929,-116.474 232.376,-123.46"/>
<g id="a_edge1&#45;label"><a xlink:title="Tooltip">
<text text-anchor="start" x="123.994" y="-169.297" font-family="Times,serif" font-size="14.00">Connect</text>
<text text-anchor="start" x="133.994" y="-154.297" font-family="Times,serif" font-size="14.00" fill="Red">Start</text>
<text text-anchor="start" x="106.994" y="-139.297" font-family="Times,serif" font-size="14.00" fill="Blue">Update Topics</text>
<text text-anchor="start" x="90.9942" y="-124.297" font-family="Times,serif" font-size="14.00" fill="Blue">Start Status Channel</text>
</a>
</g>
</g>
<!-- Trying&#45;&gt;Down -->
<g id="edge3" class="edge"><title>Trying&#45;&gt;Down</title>
<path fill="none" stroke="black" d="M248.423,-95.0124C239.027,-87.0765 228.88,-77.4959 220.994,-67.4971 210.406,-54.0721 217.642,-42.3164 202.994,-33.4971 166.583,-11.5744 117.004,-15.9841 81.6262,-23.6172"/>
<polygon fill="black" stroke="black" points="80.5389,-20.2765 71.5909,-25.9496 82.1237,-27.0948 80.5389,-20.2765"/>
<g id="a_edge3&#45;label"><a xlink:title="Tooltip">
<text text-anchor="start" x="116.494" y="-82.2971" font-family="Times,serif" font-size="14.00">Disconnect</text>
<text text-anchor="start" x="134.494" y="-67.2971" font-family="Times,serif" font-size="14.00" fill="Red">Stop</text>
<text text-anchor="start" x="91.4942" y="-52.2971" font-family="Times,serif" font-size="14.00" fill="Blue">Stop Status Channel</text>
<text text-anchor="start" x="107.494" y="-37.2971" font-family="Times,serif" font-size="14.00" fill="Blue">Unsync Status</text>
</a>
</g>
</g>
<!-- Up -->
<g id="node3" class="node"><title>Up</title>
<ellipse fill="none" stroke="black" cx="494.442" cy="-47.4971" rx="21.3963" ry="21.3963"/>
<text text-anchor="middle" x="494.442" y="-43.7971" font-family="Times,serif" font-size="14.00">Up</text>
</g>
<!-- Trying&#45;&gt;Up -->
<g id="edge2" class="edge"><title>Trying&#45;&gt;Up</title>
<path fill="none" stroke="black" d="M311.101,-118.397C348.536,-120.09 409.733,-118.162 454.994,-93.4971 463.585,-88.8155 471.051,-81.3699 477.06,-73.8214"/>
<polygon fill="black" stroke="black" points="479.91,-75.8526 482.992,-65.7159 474.262,-71.7183 479.91,-75.8526"/>
<g id="a_edge2&#45;label"><a xlink:title="Tooltip">
<text text-anchor="start" x="375.494" y="-151.297" font-family="Times,serif" font-size="14.00">Status Up</text>
<text text-anchor="start" x="359.994" y="-136.297" font-family="Times,serif" font-size="14.00" fill="Red">Status State Up</text>
<text text-anchor="start" x="370.494" y="-121.297" font-family="Times,serif" font-size="14.00" fill="Blue">Sync Status</text>
</a>
</g>
</g>
<!-- Up&#45;&gt;Down -->
<g id="edge5" class="edge"><title>Up&#45;&gt;Down</title>
<path fill="none" stroke="black" d="M475.564,-37.1361C469.249,-33.8929 461.977,-30.6127 454.994,-28.4971 402.235,-12.5135 387.006,-16.0601 331.994,-12.4971 225.084,-5.57278 196.203,2.72067 90.9942,-17.4971 87.3949,-18.1888 83.7123,-19.0805 80.0468,-20.0994"/>
<polygon fill="black" stroke="black" points="78.9852,-16.764 70.4522,-23.0439 81.039,-23.4559 78.9852,-16.764"/>
<g id="a_edge5&#45;label"><a xlink:title="Tooltip">
<text text-anchor="start" x="245.994" y="-61.2971" font-family="Times,serif" font-size="14.00">Disconnect</text>
<text text-anchor="start" x="263.994" y="-46.2971" font-family="Times,serif" font-size="14.00" fill="Red">Stop</text>
<text text-anchor="start" x="220.994" y="-31.2971" font-family="Times,serif" font-size="14.00" fill="Blue">Stop Status Channel</text>
<text text-anchor="start" x="236.994" y="-16.2971" font-family="Times,serif" font-size="14.00" fill="Blue">Unsync Status</text>
</a>
</g>
</g>
<!-- Up&#45;&gt;Trying -->
<g id="edge4" class="edge"><title>Up&#45;&gt;Trying</title>
<path fill="none" stroke="black" d="M473.678,-41.6683C444.845,-34.3197 390.302,-24.8583 349.994,-44.4971 338.325,-50.1826 340.903,-58.0561 331.994,-67.4971 325.576,-74.2989 318.302,-81.1887 311.207,-87.5444"/>
<polygon fill="black" stroke="black" points="308.83,-84.9732 303.627,-94.2021 313.45,-90.2326 308.83,-84.9732"/>
<g id="a_edge4&#45;label"><a xlink:title="Tooltip">
<text text-anchor="start" x="365.494" y="-78.2971" font-family="Times,serif" font-size="14.00">Status Trying</text>
<text text-anchor="start" x="349.994" y="-63.2971" font-family="Times,serif" font-size="14.00" fill="Red">Status State Trying</text>
<text text-anchor="start" x="362.994" y="-48.2971" font-family="Times,serif" font-size="14.00" fill="Blue">Unsync Status</text>
</a>
</g>
</g>
</g>
</svg>
