<?xml version="1.0" encoding="UTF-8" standalone="no"?>
<!DOCTYPE svg PUBLIC "-//W3C//DTD SVG 1.1//EN"
 "http://www.w3.org/Graphics/SVG/1.1/DTD/svg11.dtd">
<!-- Generated by graphviz version 2.38.0 (20140413.2041)
 -->
<!-- Title: remote_component_base Pages: 1 -->
<svg width="1440pt" height="496pt"
 viewBox="0.00 0.00 1440.00 496.46" xmlns="http://www.w3.org/2000/svg" xmlns:xlink="http://www.w3.org/1999/xlink">
<g id="graph0" class="graph" transform="scale(0.894531 0.894531) rotate(0) translate(4 551)">
<title>remote_component_base</title>
<!-- Down -->
<g id="node1" class="node"><title>Down</title>
<ellipse fill="none" stroke="black" cx="36.4971" cy="-201" rx="32.4945" ry="32.4945"/>
<ellipse fill="none" stroke="black" cx="36.4971" cy="-201" rx="36.4942" ry="36.4942"/>
<text text-anchor="middle" x="36.4971" y="-197.3" font-family="Times,serif" font-size="14.00">Down</text>
</g>
<!-- Trying -->
<g id="node2" class="node"><title>Trying</title>
<ellipse fill="none" stroke="black" cx="308.494" cy="-301" rx="34.394" ry="34.394"/>
<text text-anchor="middle" x="308.494" y="-297.3" font-family="Times,serif" font-size="14.00">Trying</text>
</g>
<!-- Down&#45;&gt;Trying -->
<g id="edge1" class="edge"><title>Down&#45;&gt;Trying</title>
<path fill="none" stroke="black" d="M72.9999,-197.609C111.936,-195.398 175.35,-196.32 223.994,-219 246.351,-229.424 266.282,-248.403 281.061,-265.479"/>
<polygon fill="black" stroke="black" points="278.378,-267.727 287.478,-273.153 283.748,-263.236 278.378,-267.727"/>
<g id="a_edge1&#45;label"><a xlink:title="Tooltip">
<text text-anchor="start" x="134.494" y="-267.8" font-family="Times,serif" font-size="14.00">Connect</text>
<text text-anchor="start" x="144.494" y="-252.8" font-family="Times,serif" font-size="14.00" fill="Red">Start</text>
<text text-anchor="start" x="131.994" y="-237.8" font-family="Times,serif" font-size="14.00" fill="Blue">Add Pins</text>
<text text-anchor="start" x="93.9942" y="-222.8" font-family="Times,serif" font-size="14.00" fill="Blue">Start Halrcmd Channel</text>
</a>
</g>
</g>
<!-- Trying&#45;&gt;Down -->
<g id="edge3" class="edge"><title>Trying&#45;&gt;Down</title>
<path fill="none" stroke="black" d="M274.035,-305.837C229.066,-310.603 148.181,-312.927 90.9942,-279 76.8608,-270.615 65.6019,-256.866 57.1301,-243.227"/>
<polygon fill="black" stroke="black" points="60.0147,-241.225 51.9632,-234.339 53.9628,-244.743 60.0147,-241.225"/>
<g id="a_edge3&#45;label"><a xlink:title="Tooltip">
<text text-anchor="start" x="126.994" y="-372.8" font-family="Times,serif" font-size="14.00">Disconnect</text>
<text text-anchor="start" x="144.994" y="-357.8" font-family="Times,serif" font-size="14.00" fill="Red">Stop</text>
<text text-anchor="start" x="94.4942" y="-342.8" font-family="Times,serif" font-size="14.00" fill="Blue">Stop Halrcmd Channel</text>
<text text-anchor="start" x="90.9942" y="-327.8" font-family="Times,serif" font-size="14.00" fill="Blue">Stop Halrcomp Channel</text>
<text text-anchor="start" x="120.994" y="-312.8" font-family="Times,serif" font-size="14.00" fill="Blue">Remove Pins</text>
</a>
</g>
</g>
<!-- Binding -->
<g id="node3" class="node"><title>Binding</title>
<ellipse fill="none" stroke="black" cx="610.494" cy="-403" rx="38.9931" ry="38.9931"/>
<text text-anchor="middle" x="610.494" y="-399.3" font-family="Times,serif" font-size="14.00">Binding</text>
</g>
<!-- Trying&#45;&gt;Binding -->
<g id="edge2" class="edge"><title>Trying&#45;&gt;Binding</title>
<path fill="none" stroke="black" d="M342.678,-305.738C401.276,-314.171 517.719,-331.252 525.994,-335 535.48,-339.296 535.946,-343.391 543.994,-350 552.913,-357.324 562.555,-365.167 571.627,-372.514"/>
<polygon fill="black" stroke="black" points="569.445,-375.25 579.421,-378.817 573.847,-369.807 569.445,-375.25"/>
<g id="a_edge2&#45;label"><a xlink:title="Tooltip">
<text text-anchor="start" x="424.994" y="-369.8" font-family="Times,serif" font-size="14.00">Halrcmd Up</text>
<text text-anchor="start" x="409.494" y="-354.8" font-family="Times,serif" font-size="14.00" fill="Red">Halrcmd State Up</text>
<text text-anchor="start" x="445.994" y="-339.8" font-family="Times,serif" font-size="14.00" fill="Blue">Bind</text>
</a>
</g>
</g>
<!-- Binding&#45;&gt;Down -->
<g id="edge8" class="edge"><title>Binding&#45;&gt;Down</title>
<path fill="none" stroke="black" d="M574.472,-418.624C559.806,-424.36 542.384,-430.145 525.994,-433 334.512,-466.354 237.114,-516.167 90.9942,-388 51.2428,-353.133 40.1055,-290.955 37.4501,-247.922"/>
<polygon fill="black" stroke="black" points="40.9345,-247.514 36.955,-237.694 33.9427,-247.852 40.9345,-247.514"/>
<g id="a_edge8&#45;label"><a xlink:title="Tooltip">
<text text-anchor="start" x="277.994" y="-535.8" font-family="Times,serif" font-size="14.00">Disconnect</text>
<text text-anchor="start" x="295.994" y="-520.8" font-family="Times,serif" font-size="14.00" fill="Red">Stop</text>
<text text-anchor="start" x="245.494" y="-505.8" font-family="Times,serif" font-size="14.00" fill="Blue">Stop Halrcmd Channel</text>
<text text-anchor="start" x="241.994" y="-490.8" font-family="Times,serif" font-size="14.00" fill="Blue">Stop Halrcomp Channel</text>
<text text-anchor="start" x="271.994" y="-475.8" font-family="Times,serif" font-size="14.00" fill="Blue">Remove Pins</text>
</a>
</g>
</g>
<!-- Binding&#45;&gt;Trying -->
<g id="edge7" class="edge"><title>Binding&#45;&gt;Trying</title>
<path fill="none" stroke="black" d="M571.304,-401.869C517.849,-399.792 423.805,-394.197 392.994,-380 371.343,-370.024 351.717,-352.157 336.941,-335.936"/>
<polygon fill="black" stroke="black" points="339.321,-333.343 330.089,-328.146 334.066,-337.967 339.321,-333.343"/>
<g id="a_edge7&#45;label"><a xlink:title="Tooltip">
<text text-anchor="start" x="414.994" y="-418.8" font-family="Times,serif" font-size="14.00">Halrcmd Trying</text>
<text text-anchor="start" x="399.494" y="-403.8" font-family="Times,serif" font-size="14.00" fill="Red">Halrcmd State Trying</text>
</a>
</g>
</g>
<!-- Syncing -->
<g id="node4" class="node"><title>Syncing</title>
<ellipse fill="none" stroke="black" cx="942.641" cy="-327" rx="39.7935" ry="39.7935"/>
<text text-anchor="middle" x="942.641" y="-323.3" font-family="Times,serif" font-size="14.00">Syncing</text>
</g>
<!-- Binding&#45;&gt;Syncing -->
<g id="edge4" class="edge"><title>Binding&#45;&gt;Syncing</title>
<path fill="none" stroke="black" d="M641.23,-378.964C664.885,-359.87 694.167,-336.308 694.994,-336 760.177,-311.737 841.858,-314.624 892.912,-319.986"/>
<polygon fill="black" stroke="black" points="892.683,-323.482 903.012,-321.121 893.465,-316.526 892.683,-323.482"/>
<g id="a_edge4&#45;label"><a xlink:title="Tooltip">
<text text-anchor="start" x="744.994" y="-369.8" font-family="Times,serif" font-size="14.00">Bind Confirmed</text>
<text text-anchor="start" x="694.994" y="-354.8" font-family="Times,serif" font-size="14.00" fill="Red">Halrcomp Bind Confirm Received</text>
<text text-anchor="start" x="723.494" y="-339.8" font-family="Times,serif" font-size="14.00" fill="Blue">Start Halrcomp Channel</text>
</a>
</g>
</g>
<!-- Binding&#45;&gt;Syncing -->
<g id="edge6" class="edge"><title>Binding&#45;&gt;Syncing</title>
<path fill="none" stroke="black" d="M649.259,-407.639C703.886,-412.695 806.95,-415.935 884.994,-381 893.828,-377.046 902.132,-371.111 909.517,-364.604"/>
<polygon fill="black" stroke="black" points="912.289,-366.799 917.15,-357.385 907.48,-361.713 912.289,-366.799"/>
<g id="a_edge6&#45;label"><a xlink:title="Tooltip">
<text text-anchor="start" x="766.494" y="-429.8" font-family="Times,serif" font-size="14.00">No Bind</text>
<text text-anchor="start" x="723.494" y="-414.8" font-family="Times,serif" font-size="14.00" fill="Blue">Start Halrcomp Channel</text>
</a>
</g>
</g>
<!-- Error -->
<g id="node5" class="node"><title>Error</title>
<ellipse fill="none" stroke="black" cx="1572.53" cy="-336" rx="29.4969" ry="29.4969"/>
<text text-anchor="middle" x="1572.53" y="-332.3" font-family="Times,serif" font-size="14.00">Error</text>
</g>
<!-- Binding&#45;&gt;Error -->
<g id="edge5" class="edge"><title>Binding&#45;&gt;Error</title>
<path fill="none" stroke="black" d="M643.877,-423.594C658.827,-431.947 677.183,-440.641 694.994,-445 972.724,-512.966 1055.59,-494.834 1338.29,-452 1424.32,-438.964 1453.43,-443.076 1525.29,-394 1534.9,-387.438 1543.48,-378.284 1550.57,-369.185"/>
<polygon fill="black" stroke="black" points="1553.54,-371.05 1556.65,-360.92 1547.9,-366.904 1553.54,-371.05"/>
<g id="a_edge5&#45;label"><a xlink:title="Tooltip">
<text text-anchor="start" x="1050.29" y="-524.8" font-family="Times,serif" font-size="14.00">Bind Rejected</text>
<text text-anchor="start" x="1000.29" y="-509.8" font-family="Times,serif" font-size="14.00" fill="Red">Halrcomp Bind Reject Received</text>
<text text-anchor="start" x="1026.29" y="-494.8" font-family="Times,serif" font-size="14.00" fill="Blue">Stop Halrcmd Channel</text>
</a>
</g>
</g>
<!-- Syncing&#45;&gt;Down -->
<g id="edge12" class="edge"><title>Syncing&#45;&gt;Down</title>
<path fill="none" stroke="black" d="M929.013,-289.745C920.024,-269.06 905.803,-244.792 884.994,-231 793.428,-170.311 502.812,-180.222 392.994,-183 281.724,-185.815 151.051,-193.579 83.3584,-197.935"/>
<polygon fill="black" stroke="black" points="82.8,-194.464 73.0474,-198.603 83.2529,-201.449 82.8,-194.464"/>
<g id="a_edge12&#45;label"><a xlink:title="Tooltip">
<text text-anchor="start" x="428.994" y="-246.8" font-family="Times,serif" font-size="14.00">Disconnect</text>
<text text-anchor="start" x="446.994" y="-231.8" font-family="Times,serif" font-size="14.00" fill="Red">Stop</text>
<text text-anchor="start" x="396.494" y="-216.8" font-family="Times,serif" font-size="14.00" fill="Blue">Stop Halrcmd Channel</text>
<text text-anchor="start" x="392.994" y="-201.8" font-family="Times,serif" font-size="14.00" fill="Blue">Stop Halrcomp Channel</text>
<text text-anchor="start" x="422.994" y="-186.8" font-family="Times,serif" font-size="14.00" fill="Blue">Remove Pins</text>
</a>
</g>
</g>
<!-- Syncing&#45;&gt;Trying -->
<g id="edge9" class="edge"><title>Syncing&#45;&gt;Trying</title>
<path fill="none" stroke="black" d="M904.018,-318.019C897.699,-316.802 891.185,-315.725 884.994,-315 687.658,-291.898 449.759,-296.233 353.297,-299.324"/>
<polygon fill="black" stroke="black" points="352.932,-295.834 343.054,-299.665 353.165,-302.831 352.932,-295.834"/>
<g id="a_edge9&#45;label"><a xlink:title="Tooltip">
<text text-anchor="start" x="565.994" y="-333.8" font-family="Times,serif" font-size="14.00">Halrcmd Trying</text>
<text text-anchor="start" x="550.494" y="-318.8" font-family="Times,serif" font-size="14.00" fill="Red">Halrcmd State Trying</text>
<text text-anchor="start" x="543.994" y="-303.8" font-family="Times,serif" font-size="14.00" fill="Blue">Stop Halrcomp Channel</text>
</a>
</g>
</g>
<!-- Syncing&#45;&gt;Error -->
<g id="edge11" class="edge"><title>Syncing&#45;&gt;Error</title>
<path fill="none" stroke="black" d="M970.652,-355.131C979.351,-362.369 989.542,-369.187 1000.29,-373 1055.26,-392.51 1470.24,-392.309 1525.29,-373 1531.81,-370.713 1538.09,-367.078 1543.81,-362.96"/>
<polygon fill="black" stroke="black" points="1546.08,-365.629 1551.75,-356.682 1541.74,-360.137 1546.08,-365.629"/>
<g id="a_edge11&#45;label"><a xlink:title="Tooltip">
<text text-anchor="start" x="1234.79" y="-436.8" font-family="Times,serif" font-size="14.00">Sync Failed</text>
<text text-anchor="start" x="1196.29" y="-421.8" font-family="Times,serif" font-size="14.00" fill="Red">Halrcomp Error Received</text>
<text text-anchor="start" x="1200.79" y="-406.8" font-family="Times,serif" font-size="14.00" fill="Blue">Stop Halrcomp Channel</text>
<text text-anchor="start" x="1204.29" y="-391.8" font-family="Times,serif" font-size="14.00" fill="Blue">Stop Halrcmd Channel</text>
</a>
</g>
</g>
<!-- Synced -->
<g id="node6" class="node"><title>Synced</title>
<ellipse fill="none" stroke="black" cx="1267.29" cy="-259" rx="36.2938" ry="36.2938"/>
<text text-anchor="middle" x="1267.29" y="-255.3" font-family="Times,serif" font-size="14.00">Synced</text>
</g>
<!-- Syncing&#45;&gt;Synced -->
<g id="edge10" class="edge"><title>Syncing&#45;&gt;Synced</title>
<path fill="none" stroke="black" d="M963.339,-293.037C972.737,-280.205 985.24,-267.017 1000.29,-260 1071.85,-226.629 1166.48,-237.388 1221.44,-248.216"/>
<polygon fill="black" stroke="black" points="1221.05,-251.71 1231.55,-250.298 1222.46,-244.853 1221.05,-251.71"/>
<g id="a_edge10&#45;label"><a xlink:title="Tooltip">
<text text-anchor="start" x="1051.29" y="-293.8" font-family="Times,serif" font-size="14.00">Halrcomp Up</text>
<text text-anchor="start" x="1036.29" y="-278.8" font-family="Times,serif" font-size="14.00" fill="Red">Halrcomp State Up</text>
<text text-anchor="start" x="1069.29" y="-263.8" font-family="Times,serif" font-size="14.00" fill="Blue">Synced</text>
</a>
</g>
</g>
<!-- Error&#45;&gt;Down -->
<g id="edge17" class="edge"><title>Error&#45;&gt;Down</title>
<path fill="none" stroke="black" d="M1562.09,-308.504C1532.58,-228.257 1434.09,-0 1268.29,-0 307.494,-0 307.494,-0 307.494,-0 201.504,-0 167.952,-27.1194 90.9942,-100 74.4034,-115.712 61.9137,-137.725 53.1926,-157.192"/>
<polygon fill="black" stroke="black" points="49.924,-155.934 49.2126,-166.505 56.3609,-158.685 49.924,-155.934"/>
<g id="a_edge17&#45;label"><a xlink:title="Tooltip">
<text text-anchor="start" x="759.494" y="-63.8" font-family="Times,serif" font-size="14.00">Disconnect</text>
<text text-anchor="start" x="777.494" y="-48.8" font-family="Times,serif" font-size="14.00" fill="Red">Stop</text>
<text text-anchor="start" x="726.994" y="-33.8" font-family="Times,serif" font-size="14.00" fill="Blue">Stop Halrcmd Channel</text>
<text text-anchor="start" x="723.494" y="-18.8" font-family="Times,serif" font-size="14.00" fill="Blue">Stop Halrcomp Channel</text>
<text text-anchor="start" x="753.494" y="-3.8" font-family="Times,serif" font-size="14.00" fill="Blue">Remove Pins</text>
</a>
</g>
</g>
<!-- Synced&#45;&gt;Down -->
<g id="edge16" class="edge"><title>Synced&#45;&gt;Down</title>
<path fill="none" stroke="black" d="M1240.27,-234.063C1188.35,-187.053 1066.31,-90 943.641,-90 307.494,-90 307.494,-90 307.494,-90 219.045,-90 125.711,-141.587 75.259,-174.425"/>
<polygon fill="black" stroke="black" points="73.0555,-171.686 66.6455,-180.122 76.9171,-177.524 73.0555,-171.686"/>
<g id="a_edge16&#45;label"><a xlink:title="Tooltip">
<text text-anchor="start" x="579.994" y="-153.8" font-family="Times,serif" font-size="14.00">Disconnect</text>
<text text-anchor="start" x="597.994" y="-138.8" font-family="Times,serif" font-size="14.00" fill="Red">Stop</text>
<text text-anchor="start" x="547.494" y="-123.8" font-family="Times,serif" font-size="14.00" fill="Blue">Stop Halrcmd Channel</text>
<text text-anchor="start" x="543.994" y="-108.8" font-family="Times,serif" font-size="14.00" fill="Blue">Stop Halrcomp Channel</text>
<text text-anchor="start" x="573.994" y="-93.8" font-family="Times,serif" font-size="14.00" fill="Blue">Remove Pins</text>
</a>
</g>
</g>
<!-- Synced&#45;&gt;Trying -->
<g id="edge14" class="edge"><title>Synced&#45;&gt;Trying</title>
<path fill="none" stroke="black" d="M1231.86,-249.877C1215.72,-246.036 1196.15,-241.999 1178.29,-240 1153.76,-237.255 754.777,-232.071 694.994,-237 628.803,-242.457 438.368,-277.003 352.452,-292.95"/>
<polygon fill="black" stroke="black" points="351.699,-289.53 342.507,-294.8 352.979,-296.412 351.699,-289.53"/>
<g id="a_edge14&#45;label"><a xlink:title="Tooltip">
<text text-anchor="start" x="745.494" y="-285.8" font-family="Times,serif" font-size="14.00">Halrcmd Trying</text>
<text text-anchor="start" x="729.994" y="-270.8" font-family="Times,serif" font-size="14.00" fill="Red">Halrcmd State Trying</text>
<text text-anchor="start" x="723.494" y="-255.8" font-family="Times,serif" font-size="14.00" fill="Blue">Stop Halrcomp Channel</text>
<text text-anchor="start" x="755.494" y="-240.8" font-family="Times,serif" font-size="14.00" fill="Blue">Unsync Pins</text>
</a>
</g>
</g>
<!-- Synced&#45;&gt;Syncing -->
<g id="edge13" class="edge"><title>Synced&#45;&gt;Syncing</title>
<path fill="none" stroke="black" d="M1236.18,-278.477C1219.73,-288.132 1198.62,-298.986 1178.29,-305 1115.96,-323.434 1040.64,-327.462 992.447,-327.864"/>
<polygon fill="black" stroke="black" points="992.281,-324.365 982.293,-327.898 992.304,-331.365 992.281,-324.365"/>
<g id="a_edge13&#45;label"><a xlink:title="Tooltip">
<text text-anchor="start" x="1041.29" y="-361.8" font-family="Times,serif" font-size="14.00">Halrcomp Trying</text>
<text text-anchor="start" x="1025.79" y="-346.8" font-family="Times,serif" font-size="14.00" fill="Red">Halrcomp State Trying</text>
<text text-anchor="start" x="1054.79" y="-331.8" font-family="Times,serif" font-size="14.00" fill="Blue">Unsync Pins</text>
</a>
</g>
</g>
<!-- Synced&#45;&gt;Error -->
<g id="edge15" class="edge"><title>Synced&#45;&gt;Error</title>
<path fill="none" stroke="black" d="M1303.55,-263.509C1353.79,-270.579 1448.41,-286.297 1525.29,-313 1529.29,-314.39 1533.39,-316.051 1537.42,-317.834"/>
<polygon fill="black" stroke="black" points="1536.05,-321.062 1546.59,-322.151 1539.03,-314.728 1536.05,-321.062"/>
<g id="a_edge15&#45;label"><a xlink:title="Tooltip">
<text text-anchor="start" x="1406.29" y="-361.8" font-family="Times,serif" font-size="14.00">Set Rejected</text>
<text text-anchor="start" x="1356.29" y="-346.8" font-family="Times,serif" font-size="14.00" fill="Red">Halrcomp Set Reject Received</text>
<text text-anchor="start" x="1374.29" y="-331.8" font-family="Times,serif" font-size="14.00" fill="Blue">Stop Halrcomp Channel</text>
<text text-anchor="start" x="1377.79" y="-316.8" font-family="Times,serif" font-size="14.00" fill="Blue">Stop Halrcmd Channel</text>
</a>
</g>
</g>
</g>
</svg>
