<?xml version="1.0" encoding="UTF-8" standalone="no"?>
<!DOCTYPE svg PUBLIC "-//W3C//DTD SVG 1.1//EN"
 "http://www.w3.org/Graphics/SVG/1.1/DTD/svg11.dtd">
<!-- Generated by graphviz version 2.38.0 (20140413.2041)
 -->
<!-- Title: publish Pages: 1 -->
<svg width="267pt" height="118pt"
 viewBox="0.00 0.00 266.89 118.20" xmlns="http://www.w3.org/2000/svg" xmlns:xlink="http://www.w3.org/1999/xlink">
<g id="graph0" class="graph" transform="scale(1 1) rotate(0) translate(4 114.205)">
<title>publish</title>
<!-- Down -->
<g id="node1" class="node"><title>Down</title>
<ellipse fill="none" stroke="black" cx="36.4971" cy="-49.205" rx="32.4945" ry="32.4945"/>
<ellipse fill="none" stroke="black" cx="36.4971" cy="-49.205" rx="36.4942" ry="36.4942"/>
<text text-anchor="middle" x="36.4971" y="-45.505" font-family="Times,serif" font-size="14.00">Down</text>
</g>
<!-- Up -->
<g id="node2" class="node"><title>Up</title>
<ellipse fill="none" stroke="black" cx="237.442" cy="-49.205" rx="21.3963" ry="21.3963"/>
<text text-anchor="middle" x="237.442" y="-45.505" font-family="Times,serif" font-size="14.00">Up</text>
</g>
<!-- Down&#45;&gt;Up -->
<g id="edge1" class="edge"><title>Down&#45;&gt;Up</title>
<path fill="none" stroke="black" d="M72.1297,-58.1393C78.3693,-59.4148 84.8448,-60.5237 90.9942,-61.205 138.261,-66.4411 150.982,-68.371 197.994,-61.205 201.075,-60.7354 204.248,-60.0657 207.388,-59.2798"/>
<polygon fill="black" stroke="black" points="208.507,-62.6001 217.152,-56.4759 206.574,-55.872 208.507,-62.6001"/>
<g id="a_edge1&#45;label"><a xlink:title="Tooltip">
<text text-anchor="start" x="121.494" y="-99.005" font-family="Times,serif" font-size="14.00">Connect</text>
<text text-anchor="start" x="131.494" y="-84.005" font-family="Times,serif" font-size="14.00" fill="Red">Start</text>
<text text-anchor="start" x="98.9942" y="-69.005" font-family="Times,serif" font-size="14.00" fill="Blue">Connect Sockets</text>
</a>
</g>
</g>
<!-- Up&#45;&gt;Down -->
<g id="edge2" class="edge"><title>Up&#45;&gt;Down</title>
<path fill="none" stroke="black" d="M223.809,-32.1036C217.094,-24.4715 208.133,-16.2911 197.994,-12.205 153.886,5.57134 136.39,1.9641 90.9942,-12.205 84.9104,-14.1039 78.909,-16.9638 73.2493,-20.2687"/>
<polygon fill="black" stroke="black" points="71.2119,-17.4171 64.6741,-25.7543 74.984,-23.3139 71.2119,-17.4171"/>
<g id="a_edge2&#45;label"><a xlink:title="Tooltip">
<text text-anchor="start" x="113.994" y="-47.005" font-family="Times,serif" font-size="14.00">Disconnect</text>
<text text-anchor="start" x="131.994" y="-32.005" font-family="Times,serif" font-size="14.00" fill="Red">Stop</text>
<text text-anchor="start" x="90.9942" y="-17.005" font-family="Times,serif" font-size="14.00" fill="Blue">Disconnect Sockets</text>
</a>
</g>
</g>
</g>
</svg>
