<?xml version="1.0" encoding="UTF-8" standalone="no"?>
<!DOCTYPE svg PUBLIC "-//W3C//DTD SVG 1.1//EN"
 "http://www.w3.org/Graphics/SVG/1.1/DTD/svg11.dtd">
<!-- Generated by graphviz version 2.38.0 (20140413.2041)
 -->
<!-- Title: rpc_client Pages: 1 -->
<svg width="719pt" height="323pt"
 viewBox="0.00 0.00 718.89 322.77" xmlns="http://www.w3.org/2000/svg" xmlns:xlink="http://www.w3.org/1999/xlink">
<g id="graph0" class="graph" transform="scale(1 1) rotate(0) translate(4 318.766)">
<title>rpc_client</title>
<!-- Down -->
<g id="node1" class="node"><title>Down</title>
<ellipse fill="none" stroke="black" cx="36.4971" cy="-139.766" rx="32.4945" ry="32.4945"/>
<ellipse fill="none" stroke="black" cx="36.4971" cy="-139.766" rx="36.4942" ry="36.4942"/>
<text text-anchor="middle" x="36.4971" y="-136.066" font-family="Times,serif" font-size="14.00">Down</text>
</g>
<!-- Trying -->
<g id="node2" class="node"><title>Trying</title>
<ellipse fill="none" stroke="black" cx="288.494" cy="-220.766" rx="34.394" ry="34.394"/>
<text text-anchor="middle" x="288.494" y="-217.066" font-family="Times,serif" font-size="14.00">Trying</text>
</g>
<!-- Down&#45;&gt;Trying -->
<g id="edge1" class="edge"><title>Down&#45;&gt;Trying</title>
<path fill="none" stroke="black" d="M56.9067,-170.365C65.8395,-181.847 77.4734,-193.793 90.9942,-200.766 139.038,-225.542 202.423,-227.389 244.038,-225.15"/>
<polygon fill="black" stroke="black" points="244.371,-228.636 254.127,-224.504 243.924,-221.65 244.371,-228.636"/>
<g id="a_edge1&#45;label"><a xlink:title="Tooltip">
<text text-anchor="start" x="127.994" y="-303.566" font-family="Times,serif" font-size="14.00">Connect</text>
<text text-anchor="start" x="137.994" y="-288.566" font-family="Times,serif" font-size="14.00" fill="Red">Start</text>
<text text-anchor="start" x="105.494" y="-273.566" font-family="Times,serif" font-size="14.00" fill="Blue">Connect Sockets</text>
<text text-anchor="start" x="91.4942" y="-258.566" font-family="Times,serif" font-size="14.00" fill="Blue">Reset Heartbeat Error</text>
<text text-anchor="start" x="122.994" y="-243.566" font-family="Times,serif" font-size="14.00" fill="Blue">Send Ping</text>
<text text-anchor="start" x="90.9942" y="-228.566" font-family="Times,serif" font-size="14.00" fill="Blue">Start Heartbeat Timer</text>
</a>
</g>
</g>
<!-- Trying&#45;&gt;Down -->
<g id="edge3" class="edge"><title>Trying&#45;&gt;Down</title>
<path fill="none" stroke="black" d="M260.192,-201.009C249.616,-192.49 237.93,-181.924 228.994,-170.766 218.306,-157.42 225.642,-145.585 210.994,-136.766 172.069,-113.33 118.79,-118.549 81.5807,-126.794"/>
<polygon fill="black" stroke="black" points="80.4581,-123.464 71.537,-129.179 82.0751,-130.274 80.4581,-123.464"/>
<g id="a_edge3&#45;label"><a xlink:title="Tooltip">
<text text-anchor="start" x="120.494" y="-185.566" font-family="Times,serif" font-size="14.00">Disconnect</text>
<text text-anchor="start" x="138.494" y="-170.566" font-family="Times,serif" font-size="14.00" fill="Red">Stop</text>
<text text-anchor="start" x="91.4942" y="-155.566" font-family="Times,serif" font-size="14.00" fill="Blue">Stop Heartbeat Timer</text>
<text text-anchor="start" x="97.4942" y="-140.566" font-family="Times,serif" font-size="14.00" fill="Blue">Disconnect Sockets</text>
</a>
</g>
</g>
<!-- Up -->
<g id="node3" class="node"><title>Up</title>
<ellipse fill="none" stroke="black" cx="529.442" cy="-139.766" rx="21.3963" ry="21.3963"/>
<text text-anchor="middle" x="529.442" y="-136.066" font-family="Times,serif" font-size="14.00">Up</text>
</g>
<!-- Trying&#45;&gt;Up -->
<g id="edge2" class="edge"><title>Trying&#45;&gt;Up</title>
<path fill="none" stroke="black" d="M321.902,-229.439C364.133,-238.76 438.634,-248.231 489.994,-215.766 505.831,-205.755 515.41,-187.037 521.046,-170.683"/>
<polygon fill="black" stroke="black" points="524.459,-171.492 524.066,-160.904 517.771,-169.426 524.459,-171.492"/>
<g id="a_edge2&#45;label"><a xlink:title="Tooltip">
<text text-anchor="start" x="398.994" y="-286.566" font-family="Times,serif" font-size="14.00">Connected</text>
<text text-anchor="start" x="397.494" y="-271.566" font-family="Times,serif" font-size="14.00" fill="Red">* Received</text>
<text text-anchor="start" x="368.494" y="-256.566" font-family="Times,serif" font-size="14.00" fill="Blue">Reset Heartbeat Error</text>
<text text-anchor="start" x="365.994" y="-241.566" font-family="Times,serif" font-size="14.00" fill="Blue">Reset Heartbeat Timer</text>
</a>
</g>
</g>
<!-- Up&#45;&gt;Down -->
<g id="edge11" class="edge"><title>Up&#45;&gt;Down</title>
<path fill="none" stroke="black" d="M510.683,-128.969C504.377,-125.691 497.082,-122.501 489.994,-120.766 317.746,-78.6046 265.415,-88.7562 90.9942,-120.766 87.3892,-121.427 83.7027,-122.298 80.0344,-123.302"/>
<polygon fill="black" stroke="black" points="78.9834,-119.963 70.4353,-126.223 81.0211,-126.66 78.9834,-119.963"/>
<g id="a_edge11&#45;label"><a xlink:title="Tooltip">
<text text-anchor="start" x="257.994" y="-146.566" font-family="Times,serif" font-size="14.00">Disconnect</text>
<text text-anchor="start" x="275.994" y="-131.566" font-family="Times,serif" font-size="14.00" fill="Red">Stop</text>
<text text-anchor="start" x="228.994" y="-116.566" font-family="Times,serif" font-size="14.00" fill="Blue">Stop Heartbeat Timer</text>
<text text-anchor="start" x="234.994" y="-101.566" font-family="Times,serif" font-size="14.00" fill="Blue">Disconnect Sockets</text>
</a>
</g>
</g>
<!-- Up&#45;&gt;Trying -->
<g id="edge4" class="edge"><title>Up&#45;&gt;Trying</title>
<path fill="none" stroke="black" d="M508.989,-133.223C476.682,-123.624 411.063,-109.631 365.994,-136.766 351.346,-145.585 358.682,-157.42 347.994,-170.766 341.222,-179.222 332.871,-187.337 324.621,-194.48"/>
<polygon fill="black" stroke="black" points="322.232,-191.915 316.796,-201.009 326.717,-197.289 322.232,-191.915"/>
<g id="a_edge4&#45;label"><a xlink:title="Tooltip">
<text text-anchor="start" x="404.494" y="-200.566" font-family="Times,serif" font-size="14.00">Timeout</text>
<text text-anchor="start" x="376.494" y="-185.566" font-family="Times,serif" font-size="14.00" fill="Red">Heartbeat Timeout</text>
<text text-anchor="start" x="374.494" y="-170.566" font-family="Times,serif" font-size="14.00" fill="Blue">Disconnect Sockets</text>
<text text-anchor="start" x="382.494" y="-155.566" font-family="Times,serif" font-size="14.00" fill="Blue">Connect Sockets</text>
<text text-anchor="start" x="399.994" y="-140.566" font-family="Times,serif" font-size="14.00" fill="Blue">Send Ping</text>
</a>
</g>
</g>
<!-- uprefreshup -->
<g id="node4" class="node"><title>uprefreshup</title>
<ellipse fill="black" stroke="black" cx="710.89" cy="-232.766" rx="0" ry="0"/>
</g>
<!-- Up&#45;&gt;uprefreshup -->
<g id="edge5" class="edge"><title>Up&#45;&gt;uprefreshup:n</title>
<path fill="none" stroke="black" d="M531.08,-161.28C533.135,-186.969 540.881,-228.945 568.89,-248.766 620.694,-285.425 710.89,-297.228 710.89,-233.766"/>
</g>
<!-- uptickup -->
<g id="node5" class="node"><title>uptickup</title>
<ellipse fill="black" stroke="black" cx="710.89" cy="-139.766" rx="0" ry="0"/>
</g>
<!-- Up&#45;&gt;uptickup -->
<g id="edge7" class="edge"><title>Up&#45;&gt;uptickup:n</title>
<path fill="none" stroke="black" d="M548.749,-149.11C554.976,-151.816 562.084,-154.406 568.89,-155.766 631.123,-168.198 710.89,-204.228 710.89,-140.766"/>
</g>
<!-- upmsg_sentup -->
<g id="node6" class="node"><title>upmsg_sentup</title>
<ellipse fill="black" stroke="black" cx="710.89" cy="-46.7657" rx="0" ry="0"/>
</g>
<!-- Up&#45;&gt;upmsg_sentup -->
<g id="edge9" class="edge"><title>Up&#45;&gt;upmsg_sentup:n</title>
<path fill="none" stroke="black" d="M540.581,-121.299C547.28,-110.796 557.009,-98.2776 568.89,-90.7657 624.627,-55.5276 710.89,-113.707 710.89,-47.7657"/>
</g>
<!-- uprefreshup&#45;&gt;Up -->
<g id="edge6" class="edge"><title>uprefreshup:s&#45;&gt;Up</title>
<path fill="none" stroke="black" d="M710.89,-231.766C710.89,-164.556 628.426,-210.953 568.89,-179.766 561.851,-176.078 555.356,-170.613 549.785,-164.899"/>
<polygon fill="black" stroke="black" points="552.076,-162.211 542.797,-157.097 546.862,-166.881 552.076,-162.211"/>
<g id="a_edge6&#45;label"><a xlink:title="Tooltip">
<text text-anchor="start" x="609.39" y="-230.566" font-family="Times,serif" font-size="14.00">Refresh</text>
<text text-anchor="start" x="600.39" y="-215.566" font-family="Times,serif" font-size="14.00" fill="Red">* Received</text>
<text text-anchor="start" x="571.39" y="-200.566" font-family="Times,serif" font-size="14.00" fill="Blue">Reset Heartbeat Error</text>
</a>
</g>
</g>
<!-- uptickup&#45;&gt;Up -->
<g id="edge8" class="edge"><title>uptickup:s&#45;&gt;Up</title>
<path fill="none" stroke="black" d="M710.89,-138.766C710.89,-74.072 629.558,-84.3002 568.89,-106.766 562.719,-109.051 556.871,-112.819 551.685,-117.008"/>
<polygon fill="black" stroke="black" points="549.236,-114.502 544.128,-123.784 553.909,-119.714 549.236,-114.502"/>
<g id="a_edge8&#45;label"><a xlink:title="Tooltip">
<text text-anchor="start" x="618.39" y="-140.566" font-family="Times,serif" font-size="14.00">Tick</text>
<text text-anchor="start" x="589.89" y="-125.566" font-family="Times,serif" font-size="14.00" fill="Red">Heartbeat Tick</text>
<text text-anchor="start" x="602.89" y="-110.566" font-family="Times,serif" font-size="14.00" fill="Blue">Send Ping</text>
</a>
</g>
</g>
<!-- upmsg_sentup&#45;&gt;Up -->
<g id="edge10" class="edge"><title>upmsg_sentup:s&#45;&gt;Up</title>
<path fill="none" stroke="black" d="M710.89,-45.7657C710.89,17.7447 620.681,6.99489 568.89,-29.7657 544.097,-47.3642 535.163,-82.2124 532.013,-107.991"/>
<polygon fill="black" stroke="black" points="528.518,-107.764 531.014,-118.06 535.484,-108.455 528.518,-107.764"/>
<g id="a_edge10&#45;label"><a xlink:title="Tooltip">
<text text-anchor="start" x="604.39" y="-63.5657" font-family="Times,serif" font-size="14.00">Msg Sent</text>
<text text-anchor="start" x="613.39" y="-48.5657" font-family="Times,serif" font-size="14.00" fill="Red">* Sent</text>
<text text-anchor="start" x="568.89" y="-33.5657" font-family="Times,serif" font-size="14.00" fill="Blue">Reset Heartbeat Timer</text>
</a>
</g>
</g>
</g>
</svg>
