<?xml version="1.0" encoding="UTF-8" standalone="no"?>
<!DOCTYPE svg PUBLIC "-//W3C//DTD SVG 1.1//EN"
 "http://www.w3.org/Graphics/SVG/1.1/DTD/svg11.dtd">
<!-- Generated by graphviz version 2.38.0 (20140413.2041)
 -->
<!-- Title: rpc_service Pages: 1 -->
<svg width="438pt" height="122pt"
 viewBox="0.00 0.00 437.89 121.68" xmlns="http://www.w3.org/2000/svg" xmlns:xlink="http://www.w3.org/1999/xlink">
<g id="graph0" class="graph" transform="scale(1 1) rotate(0) translate(4 117.681)">
<title>rpc_service</title>
<!-- Down -->
<g id="node1" class="node"><title>Down</title>
<ellipse fill="none" stroke="black" cx="36.4971" cy="-52.6814" rx="32.4945" ry="32.4945"/>
<ellipse fill="none" stroke="black" cx="36.4971" cy="-52.6814" rx="36.4942" ry="36.4942"/>
<text text-anchor="middle" x="36.4971" y="-48.9814" font-family="Times,serif" font-size="14.00">Down</text>
</g>
<!-- Up -->
<g id="node2" class="node"><title>Up</title>
<ellipse fill="none" stroke="black" cx="237.442" cy="-52.6814" rx="21.3963" ry="21.3963"/>
<text text-anchor="middle" x="237.442" y="-48.9814" font-family="Times,serif" font-size="14.00">Up</text>
</g>
<!-- Down&#45;&gt;Up -->
<g id="edge1" class="edge"><title>Down&#45;&gt;Up</title>
<path fill="none" stroke="black" d="M72.1297,-61.6158C78.3693,-62.8912 84.8448,-64.0002 90.9942,-64.6814 138.261,-69.9175 150.982,-71.8474 197.994,-64.6814 201.075,-64.2118 204.248,-63.5421 207.388,-62.7562"/>
<polygon fill="black" stroke="black" points="208.507,-66.0765 217.152,-59.9524 206.574,-59.3484 208.507,-66.0765"/>
<g id="a_edge1&#45;label"><a xlink:title="Tooltip">
<text text-anchor="start" x="121.494" y="-102.481" font-family="Times,serif" font-size="14.00">Connect</text>
<text text-anchor="start" x="131.494" y="-87.4814" font-family="Times,serif" font-size="14.00" fill="Red">Start</text>
<text text-anchor="start" x="98.9942" y="-72.4814" font-family="Times,serif" font-size="14.00" fill="Blue">Connect Sockets</text>
</a>
</g>
</g>
<!-- Up&#45;&gt;Down -->
<g id="edge4" class="edge"><title>Up&#45;&gt;Down</title>
<path fill="none" stroke="black" d="M223.809,-35.58C217.094,-27.9479 208.133,-19.7675 197.994,-15.6814 153.886,2.09493 136.39,-1.51232 90.9942,-15.6814 84.9104,-17.5803 78.909,-20.4402 73.2493,-23.7451"/>
<polygon fill="black" stroke="black" points="71.2119,-20.8936 64.6741,-29.2307 74.984,-26.7903 71.2119,-20.8936"/>
<g id="a_edge4&#45;label"><a xlink:title="Tooltip">
<text text-anchor="start" x="113.994" y="-50.4814" font-family="Times,serif" font-size="14.00">Disconnect</text>
<text text-anchor="start" x="131.994" y="-35.4814" font-family="Times,serif" font-size="14.00" fill="Red">Stop</text>
<text text-anchor="start" x="90.9942" y="-20.4814" font-family="Times,serif" font-size="14.00" fill="Blue">Disconnect Sockets</text>
</a>
</g>
</g>
<!-- upping_receivedup -->
<g id="node3" class="node"><title>upping_receivedup</title>
<ellipse fill="black" stroke="black" cx="429.89" cy="-52.6814" rx="0" ry="0"/>
</g>
<!-- Up&#45;&gt;upping_receivedup -->
<g id="edge2" class="edge"><title>Up&#45;&gt;upping_receivedup:n</title>
<path fill="none" stroke="black" d="M256.749,-62.0255C262.976,-64.7318 270.084,-67.3217 276.89,-68.6814 343.893,-82.0663 429.89,-122.007 429.89,-53.6814"/>
</g>
<!-- upping_receivedup&#45;&gt;Up -->
<g id="edge3" class="edge"><title>upping_receivedup:s&#45;&gt;Up</title>
<path fill="none" stroke="black" d="M429.89,-51.6814C429.89,17.79 342.039,4.44317 276.89,-19.6814 270.719,-21.9667 264.871,-25.7345 259.685,-29.9233"/>
<polygon fill="black" stroke="black" points="257.236,-27.4177 252.128,-36.6995 261.909,-32.6294 257.236,-27.4177"/>
<g id="a_edge3&#45;label"><a xlink:title="Tooltip">
<text text-anchor="start" x="304.89" y="-53.4814" font-family="Times,serif" font-size="14.00">Ping Received</text>
<text text-anchor="start" x="304.89" y="-38.4814" font-family="Times,serif" font-size="14.00" fill="Red">Ping Received</text>
<text text-anchor="start" x="276.89" y="-23.4814" font-family="Times,serif" font-size="14.00" fill="Blue">Send Ping Acknowledge</text>
</a>
</g>
</g>
</g>
</svg>
