<?xml version="1.0" encoding="UTF-8" standalone="no"?>
<!DOCTYPE svg PUBLIC "-//W3C//DTD SVG 1.1//EN"
 "http://www.w3.org/Graphics/SVG/1.1/DTD/svg11.dtd">
<!-- Generated by graphviz version 2.38.0 (20140413.2041)
 -->
<!-- Title: subscribe Pages: 1 -->
<svg width="714pt" height="330pt"
 viewBox="0.00 0.00 713.89 329.55" xmlns="http://www.w3.org/2000/svg" xmlns:xlink="http://www.w3.org/1999/xlink">
<g id="graph0" class="graph" transform="scale(1 1) rotate(0) translate(4 325.55)">
<title>subscribe</title>
<!-- Down -->
<g id="node1" class="node"><title>Down</title>
<ellipse fill="none" stroke="black" cx="36.4971" cy="-156.55" rx="32.4945" ry="32.4945"/>
<ellipse fill="none" stroke="black" cx="36.4971" cy="-156.55" rx="36.4942" ry="36.4942"/>
<text text-anchor="middle" x="36.4971" y="-152.85" font-family="Times,serif" font-size="14.00">Down</text>
</g>
<!-- Trying -->
<g id="node2" class="node"><title>Trying</title>
<ellipse fill="none" stroke="black" cx="287.494" cy="-198.55" rx="34.394" ry="34.394"/>
<text text-anchor="middle" x="287.494" y="-194.85" font-family="Times,serif" font-size="14.00">Trying</text>
</g>
<!-- Down&#45;&gt;Trying -->
<g id="edge1" class="edge"><title>Down&#45;&gt;Trying</title>
<path fill="none" stroke="black" d="M45.7246,-192.061C53.243,-215.682 66.97,-244.956 90.9942,-259.55 136.197,-287.008 160.073,-277.016 209.994,-259.55 226.99,-253.603 243.027,-242.123 255.985,-230.711"/>
<polygon fill="black" stroke="black" points="258.652,-233.013 263.636,-223.664 253.91,-227.864 258.652,-233.013"/>
<g id="a_edge1&#45;label"><a xlink:title="Tooltip">
<text text-anchor="start" x="127.494" y="-310.35" font-family="Times,serif" font-size="14.00">Connect</text>
<text text-anchor="start" x="137.494" y="-295.35" font-family="Times,serif" font-size="14.00" fill="Red">Start</text>
<text text-anchor="start" x="104.994" y="-280.35" font-family="Times,serif" font-size="14.00" fill="Blue">Connect Sockets</text>
</a>
</g>
</g>
<!-- Trying&#45;&gt;Down -->
<g id="edge3" class="edge"><title>Trying&#45;&gt;Down</title>
<path fill="none" stroke="black" d="M252.855,-197.273C213.555,-195.206 146.799,-189.905 90.9942,-176.55 87.4082,-175.691 83.7351,-174.66 80.0759,-173.525"/>
<polygon fill="black" stroke="black" points="81.0856,-170.172 70.4918,-170.323 78.8672,-176.812 81.0856,-170.172"/>
<g id="a_edge3&#45;label"><a xlink:title="Tooltip">
<text text-anchor="start" x="119.994" y="-242.35" font-family="Times,serif" font-size="14.00">Disconnect</text>
<text text-anchor="start" x="137.994" y="-227.35" font-family="Times,serif" font-size="14.00" fill="Red">Stop</text>
<text text-anchor="start" x="90.9942" y="-212.35" font-family="Times,serif" font-size="14.00" fill="Blue">Stop Heartbeat Timer</text>
<text text-anchor="start" x="96.9942" y="-197.35" font-family="Times,serif" font-size="14.00" fill="Blue">Disconnect Sockets</text>
</a>
</g>
</g>
<!-- Trying&#45;&gt;Down -->
<g id="edge4" class="edge"><title>Trying&#45;&gt;Down</title>
<path fill="none" stroke="black" d="M259.531,-178.08C248.884,-169.152 237.056,-158.093 227.994,-146.55 217.437,-133.1 224.642,-121.369 209.994,-112.55 164.684,-85.2692 140.782,-94.7052 90.9942,-112.55 83.5917,-115.203 76.4805,-119.371 69.9946,-124.108"/>
<polygon fill="black" stroke="black" points="67.7976,-121.383 62.1389,-130.34 72.1482,-126.867 67.7976,-121.383"/>
<g id="a_edge4&#45;label"><a xlink:title="Tooltip">
<text text-anchor="start" x="119.994" y="-161.35" font-family="Times,serif" font-size="14.00">Disconnect</text>
<text text-anchor="start" x="137.994" y="-146.35" font-family="Times,serif" font-size="14.00" fill="Red">Stop</text>
<text text-anchor="start" x="90.9942" y="-131.35" font-family="Times,serif" font-size="14.00" fill="Blue">Stop Heartbeat Timer</text>
<text text-anchor="start" x="96.9942" y="-116.35" font-family="Times,serif" font-size="14.00" fill="Blue">Disconnect Sockets</text>
</a>
</g>
</g>
<!-- Up -->
<g id="node3" class="node"><title>Up</title>
<ellipse fill="none" stroke="black" cx="524.442" cy="-115.55" rx="21.3963" ry="21.3963"/>
<text text-anchor="middle" x="524.442" y="-111.85" font-family="Times,serif" font-size="14.00">Up</text>
</g>
<!-- Trying&#45;&gt;Up -->
<g id="edge2" class="edge"><title>Trying&#45;&gt;Up</title>
<path fill="none" stroke="black" d="M321.018,-206.78C362.579,-215.333 435.1,-223.461 484.994,-191.55 500.777,-181.455 510.356,-162.736 516.005,-146.402"/>
<polygon fill="black" stroke="black" points="519.413,-147.226 519.034,-136.638 512.728,-145.152 519.413,-147.226"/>
<g id="a_edge2&#45;label"><a xlink:title="Tooltip">
<text text-anchor="start" x="395.994" y="-262.35" font-family="Times,serif" font-size="14.00">Connected</text>
<text text-anchor="start" x="365.494" y="-247.35" font-family="Times,serif" font-size="14.00" fill="Red">Full Update Received</text>
<text text-anchor="start" x="365.494" y="-232.35" font-family="Times,serif" font-size="14.00" fill="Blue">Reset Heartbeat Error</text>
<text text-anchor="start" x="364.994" y="-217.35" font-family="Times,serif" font-size="14.00" fill="Blue">Start Heartbeat Timer</text>
</a>
</g>
</g>
<!-- Up&#45;&gt;Down -->
<g id="edge10" class="edge"><title>Up&#45;&gt;Down</title>
<path fill="none" stroke="black" d="M505.696,-104.697C499.392,-101.415 492.094,-98.2352 484.994,-96.5496 314.619,-56.0981 250.53,-24.3532 90.9942,-96.5496 80.3736,-101.356 70.9881,-109.414 63.1625,-118.089"/>
<polygon fill="black" stroke="black" points="60.4359,-115.894 56.6952,-125.806 65.801,-120.39 60.4359,-115.894"/>
<g id="a_edge10&#45;label"><a xlink:title="Tooltip">
<text text-anchor="start" x="256.994" y="-112.35" font-family="Times,serif" font-size="14.00">Disconnect</text>
<text text-anchor="start" x="274.994" y="-97.3496" font-family="Times,serif" font-size="14.00" fill="Red">Stop</text>
<text text-anchor="start" x="227.994" y="-82.3496" font-family="Times,serif" font-size="14.00" fill="Blue">Stop Heartbeat Timer</text>
<text text-anchor="start" x="233.994" y="-67.3496" font-family="Times,serif" font-size="14.00" fill="Blue">Disconnect Sockets</text>
</a>
</g>
</g>
<!-- Up&#45;&gt;Trying -->
<g id="edge5" class="edge"><title>Up&#45;&gt;Trying</title>
<path fill="none" stroke="black" d="M503.959,-109.003C472.271,-99.6253 408.718,-86.2244 364.994,-112.55 350.346,-121.369 357.552,-133.1 346.994,-146.55 340.056,-155.388 331.497,-163.942 323.088,-171.473"/>
<polygon fill="black" stroke="black" points="320.726,-168.888 315.458,-178.08 325.308,-174.18 320.726,-168.888"/>
<g id="a_edge5&#45;label"><a xlink:title="Tooltip">
<text text-anchor="start" x="401.494" y="-176.35" font-family="Times,serif" font-size="14.00">Timeout</text>
<text text-anchor="start" x="373.494" y="-161.35" font-family="Times,serif" font-size="14.00" fill="Red">Heartbeat Timeout</text>
<text text-anchor="start" x="365.494" y="-146.35" font-family="Times,serif" font-size="14.00" fill="Blue">Stop Heartbeat Timer</text>
<text text-anchor="start" x="371.494" y="-131.35" font-family="Times,serif" font-size="14.00" fill="Blue">Disconnect Sockets</text>
<text text-anchor="start" x="379.494" y="-116.35" font-family="Times,serif" font-size="14.00" fill="Blue">Connect Sockets</text>
</a>
</g>
</g>
<!-- uptickup -->
<g id="node4" class="node"><title>uptickup</title>
<ellipse fill="black" stroke="black" cx="705.89" cy="-162.55" rx="0" ry="0"/>
</g>
<!-- Up&#45;&gt;uptickup -->
<g id="edge6" class="edge"><title>Up&#45;&gt;uptickup:n</title>
<path fill="none" stroke="black" d="M531.841,-135.989C537.646,-150.714 547.8,-169.519 563.89,-178.55 619.233,-209.609 705.89,-227.012 705.89,-163.55"/>
</g>
<!-- upmessage_receivedup -->
<g id="node5" class="node"><title>upmessage_receivedup</title>
<ellipse fill="black" stroke="black" cx="705.89" cy="-62.5496" rx="0" ry="0"/>
</g>
<!-- Up&#45;&gt;upmessage_receivedup -->
<g id="edge8" class="edge"><title>Up&#45;&gt;upmessage_receivedup:n</title>
<path fill="none" stroke="black" d="M546.083,-113.521C584.248,-109.481 664.127,-99.5959 687.89,-85.5496 698.766,-79.1211 705.89,-76.1831 705.89,-63.5496"/>
</g>
<!-- uptickup&#45;&gt;Up -->
<g id="edge7" class="edge"><title>uptickup:s&#45;&gt;Up</title>
<path fill="none" stroke="black" d="M705.89,-161.55C705.89,-145.232 701.609,-138.385 687.89,-129.55 666.809,-115.972 597.102,-114.482 556.171,-114.852"/>
<polygon fill="black" stroke="black" points="555.895,-111.355 545.942,-114.989 555.988,-118.355 555.895,-111.355"/>
<g id="a_edge7&#45;label"><a xlink:title="Tooltip">
<text text-anchor="start" x="613.39" y="-163.35" font-family="Times,serif" font-size="14.00">Tick</text>
<text text-anchor="start" x="584.89" y="-148.35" font-family="Times,serif" font-size="14.00" fill="Red">Heartbeat Tick</text>
<text text-anchor="start" x="563.89" y="-133.35" font-family="Times,serif" font-size="14.00" fill="Blue">Reset Heartbeat Timer</text>
</a>
</g>
</g>
<!-- upmessage_receivedup&#45;&gt;Up -->
<g id="edge9" class="edge"><title>upmessage_receivedup:s&#45;&gt;Up</title>
<path fill="none" stroke="black" d="M705.89,-61.5496C705.89,4.1395 618.36,16.1671 563.89,-20.5496 542.875,-34.7156 533.343,-62.5288 529.021,-84.4165"/>
<polygon fill="black" stroke="black" points="525.568,-83.8457 527.335,-94.2921 532.468,-85.0238 525.568,-83.8457"/>
<g id="a_edge9&#45;label"><a xlink:title="Tooltip">
<text text-anchor="start" x="574.39" y="-69.3496" font-family="Times,serif" font-size="14.00">Message Received</text>
<text text-anchor="start" x="595.39" y="-54.3496" font-family="Times,serif" font-size="14.00" fill="Red">* Received</text>
<text text-anchor="start" x="566.39" y="-39.3496" font-family="Times,serif" font-size="14.00" fill="Blue">Reset Heartbeat Error</text>
<text text-anchor="start" x="563.89" y="-24.3496" font-family="Times,serif" font-size="14.00" fill="Blue">Reset Heartbeat Timer</text>
</a>
</g>
</g>
</g>
</svg>
