<?xml version="1.0" encoding="UTF-8" standalone="no"?>
<!DOCTYPE svg PUBLIC "-//W3C//DTD SVG 1.1//EN"
 "http://www.w3.org/Graphics/SVG/1.1/DTD/svg11.dtd">
<!-- Generated by graphviz version 2.38.0 (20140413.2041)
 -->
<!-- Title: sync_client Pages: 1 -->
<svg width="729pt" height="244pt"
 viewBox="0.00 0.00 728.68 243.54" xmlns="http://www.w3.org/2000/svg" xmlns:xlink="http://www.w3.org/1999/xlink">
<g id="graph0" class="graph" transform="scale(1 1) rotate(0) translate(4 239.542)">
<title>sync_client</title>
<!-- Down -->
<g id="node1" class="node"><title>Down</title>
<ellipse fill="none" stroke="black" cx="36.4971" cy="-47.5424" rx="32.4945" ry="32.4945"/>
<ellipse fill="none" stroke="black" cx="36.4971" cy="-47.5424" rx="36.4942" ry="36.4942"/>
<text text-anchor="middle" x="36.4971" y="-43.8424" font-family="Times,serif" font-size="14.00">Down</text>
</g>
<!-- Trying -->
<g id="node2" class="node"><title>Trying</title>
<ellipse fill="none" stroke="black" cx="249.441" cy="-147.542" rx="34.394" ry="34.394"/>
<text text-anchor="middle" x="249.441" y="-143.842" font-family="Times,serif" font-size="14.00">Trying</text>
</g>
<!-- Down&#45;&gt;Trying -->
<g id="edge1" class="edge"><title>Down&#45;&gt;Trying</title>
<path fill="none" stroke="black" d="M48.0222,-82.4012C56.2177,-103.067 69.8305,-127.665 90.9942,-140.542 125.311,-161.422 172.05,-160.656 205.676,-156.204"/>
<polygon fill="black" stroke="black" points="206.284,-159.652 215.663,-154.723 205.258,-152.727 206.284,-159.652"/>
<g id="a_edge1&#45;label"><a xlink:title="Tooltip">
<text text-anchor="start" x="120.994" y="-207.342" font-family="Times,serif" font-size="14.00">Connect</text>
<text text-anchor="start" x="130.994" y="-192.342" font-family="Times,serif" font-size="14.00" fill="Red">Start</text>
<text text-anchor="start" x="90.9942" y="-177.342" font-family="Times,serif" font-size="14.00" fill="Blue">Start Sync Channel</text>
<text text-anchor="start" x="93.9942" y="-162.342" font-family="Times,serif" font-size="14.00" fill="Blue">Start Pub Channel</text>
</a>
</g>
</g>
<!-- Trying&#45;&gt;Down -->
<g id="edge3" class="edge"><title>Trying&#45;&gt;Down</title>
<path fill="none" stroke="black" d="M237.622,-115.138C229.527,-96.2177 216.457,-73.734 196.994,-61.5424 178.683,-50.0717 123.789,-47.3699 83.4985,-47.0168"/>
<polygon fill="black" stroke="black" points="83.3573,-43.5163 73.3426,-46.9738 83.3276,-50.5162 83.3573,-43.5163"/>
<g id="a_edge3&#45;label"><a xlink:title="Tooltip">
<text text-anchor="start" x="113.494" y="-125.342" font-family="Times,serif" font-size="14.00">Disconnect</text>
<text text-anchor="start" x="131.494" y="-110.342" font-family="Times,serif" font-size="14.00" fill="Red">Stop</text>
<text text-anchor="start" x="91.4942" y="-95.3424" font-family="Times,serif" font-size="14.00" fill="Blue">Stop Sync Channel</text>
<text text-anchor="start" x="94.4942" y="-80.3424" font-family="Times,serif" font-size="14.00" fill="Blue">Stop Sub Channel</text>
<text text-anchor="start" x="94.4942" y="-65.3424" font-family="Times,serif" font-size="14.00" fill="Blue">Stop Pub Channel</text>
</a>
</g>
</g>
<!-- Syncing -->
<g id="node3" class="node"><title>Syncing</title>
<ellipse fill="none" stroke="black" cx="469.388" cy="-64.5424" rx="39.7935" ry="39.7935"/>
<text text-anchor="middle" x="469.388" y="-60.8424" font-family="Times,serif" font-size="14.00">Syncing</text>
</g>
<!-- Trying&#45;&gt;Syncing -->
<g id="edge2" class="edge"><title>Trying&#45;&gt;Syncing</title>
<path fill="none" stroke="black" d="M261.691,-115.23C269.833,-97.1539 282.802,-76.1744 301.888,-65.5424 337.973,-45.4411 385.65,-47.4686 420.735,-53.184"/>
<polygon fill="black" stroke="black" points="420.275,-56.657 430.734,-54.9666 421.504,-49.7657 420.275,-56.657"/>
<g id="a_edge2&#45;label"><a xlink:title="Tooltip">
<text text-anchor="start" x="327.888" y="-114.342" font-family="Times,serif" font-size="14.00">Sync Up</text>
<text text-anchor="start" x="312.388" y="-99.3424" font-family="Times,serif" font-size="14.00" fill="Red">Sync State Up</text>
<text text-anchor="start" x="322.888" y="-84.3424" font-family="Times,serif" font-size="14.00" fill="Blue">Send Sync</text>
<text text-anchor="start" x="301.888" y="-69.3424" font-family="Times,serif" font-size="14.00" fill="Blue">Start Sub Channel</text>
</a>
</g>
</g>
<!-- Syncing&#45;&gt;Down -->
<g id="edge6" class="edge"><title>Syncing&#45;&gt;Down</title>
<path fill="none" stroke="black" d="M431.5,-52.0344C421.966,-49.3482 411.639,-46.908 401.888,-45.5424 288.066,-29.601 152.279,-37.2929 83.0263,-43.1031"/>
<polygon fill="black" stroke="black" points="82.56,-39.6303 72.899,-43.9796 83.1636,-46.6043 82.56,-39.6303"/>
<g id="a_edge6&#45;label"><a xlink:title="Tooltip">
<text text-anchor="start" x="218.941" y="-55.3424" font-family="Times,serif" font-size="14.00">Disconnect</text>
<text text-anchor="start" x="236.941" y="-40.3424" font-family="Times,serif" font-size="14.00" fill="Red">Stop</text>
</a>
</g>
</g>
<!-- Syncing&#45;&gt;Trying -->
<g id="edge4" class="edge"><title>Syncing&#45;&gt;Trying</title>
<path fill="none" stroke="black" d="M443.049,-94.5386C431.66,-106.072 417.314,-118.218 401.888,-125.542 368.034,-141.616 325.508,-146.656 294.144,-147.941"/>
<polygon fill="black" stroke="black" points="293.856,-144.448 283.965,-148.243 294.064,-151.445 293.856,-144.448"/>
<g id="a_edge4&#45;label"><a xlink:title="Tooltip">
<text text-anchor="start" x="317.888" y="-181.342" font-family="Times,serif" font-size="14.00">Sync Trying</text>
<text text-anchor="start" x="302.388" y="-166.342" font-family="Times,serif" font-size="14.00" fill="Red">Sync State Trying</text>
<text text-anchor="start" x="302.388" y="-151.342" font-family="Times,serif" font-size="14.00" fill="Blue">Stop Sub Channel</text>
</a>
</g>
</g>
<!-- Synced -->
<g id="node4" class="node"><title>Synced</title>
<ellipse fill="none" stroke="black" cx="684.285" cy="-75.5424" rx="36.2938" ry="36.2938"/>
<text text-anchor="middle" x="684.285" y="-71.8424" font-family="Times,serif" font-size="14.00">Synced</text>
</g>
<!-- Syncing&#45;&gt;Synced -->
<g id="edge5" class="edge"><title>Syncing&#45;&gt;Synced</title>
<path fill="none" stroke="black" d="M506.45,-50.2943C516.177,-47.0944 526.803,-44.1672 536.888,-42.5424 577.695,-35.9675 590.128,-31.2476 629.888,-42.5424 635.261,-44.0685 640.622,-46.3062 645.762,-48.9094"/>
<polygon fill="black" stroke="black" points="644.29,-52.0962 654.727,-53.915 647.702,-45.9843 644.29,-52.0962"/>
<g id="a_edge5&#45;label"><a xlink:title="Tooltip">
<text text-anchor="start" x="562.388" y="-76.3424" font-family="Times,serif" font-size="14.00">Sub Up</text>
<text text-anchor="start" x="546.888" y="-61.3424" font-family="Times,serif" font-size="14.00" fill="Red">Sub State Up</text>
<text text-anchor="start" x="563.388" y="-46.3424" font-family="Times,serif" font-size="14.00" fill="Blue">Synced</text>
</a>
</g>
</g>
<!-- Synced&#45;&gt;Down -->
<g id="edge9" class="edge"><title>Synced&#45;&gt;Down</title>
<path fill="none" stroke="black" d="M657.686,-50.4218C649.412,-43.6047 639.8,-36.9091 629.888,-32.5424 584.215,-12.4213 568.394,-21.8681 518.888,-15.5424 330.08,8.58321 277.595,4.0174 90.9942,-33.5424 87.9854,-34.148 84.8938,-34.8207 81.787,-35.5342"/>
<polygon fill="black" stroke="black" points="80.7956,-32.1729 71.8952,-37.9204 82.4372,-38.9777 80.7956,-32.1729"/>
<g id="a_edge9&#45;label"><a xlink:title="Tooltip">
<text text-anchor="start" x="321.388" y="-22.3424" font-family="Times,serif" font-size="14.00">Disconnect</text>
<text text-anchor="start" x="339.388" y="-7.34236" font-family="Times,serif" font-size="14.00" fill="Red">Stop</text>
</a>
</g>
</g>
<!-- Synced&#45;&gt;Trying -->
<g id="edge8" class="edge"><title>Synced&#45;&gt;Trying</title>
<path fill="none" stroke="black" d="M664.904,-106.409C655.868,-119.086 643.897,-132.81 629.888,-141.542 541.685,-196.522 505.171,-181.914 401.888,-193.542 357.723,-198.515 343.408,-209.398 301.888,-193.542 294.097,-190.567 286.739,-185.809 280.154,-180.457"/>
<polygon fill="black" stroke="black" points="282.058,-177.467 272.254,-173.45 277.413,-182.704 282.058,-177.467"/>
<g id="a_edge8&#45;label"><a xlink:title="Tooltip">
<text text-anchor="start" x="435.388" y="-224.342" font-family="Times,serif" font-size="14.00">Sync Trying</text>
<text text-anchor="start" x="419.888" y="-209.342" font-family="Times,serif" font-size="14.00" fill="Red">Sync State Trying</text>
<text text-anchor="start" x="419.888" y="-194.342" font-family="Times,serif" font-size="14.00" fill="Blue">Stop Sub Channel</text>
</a>
</g>
</g>
<!-- Synced&#45;&gt;Syncing -->
<g id="edge7" class="edge"><title>Synced&#45;&gt;Syncing</title>
<path fill="none" stroke="black" d="M648.718,-84.4767C642.49,-85.7522 636.026,-86.8611 629.888,-87.5424 588.807,-92.1016 577.65,-94.3923 536.888,-87.5424 530.089,-86.3998 523.056,-84.6431 516.222,-82.5987"/>
<polygon fill="black" stroke="black" points="516.994,-79.1705 506.403,-79.4355 514.848,-85.8333 516.994,-79.1705"/>
<g id="a_edge7&#45;label"><a xlink:title="Tooltip">
<text text-anchor="start" x="552.388" y="-126.342" font-family="Times,serif" font-size="14.00">Sub Trying</text>
<text text-anchor="start" x="536.888" y="-111.342" font-family="Times,serif" font-size="14.00" fill="Red">Sub State Trying</text>
<text text-anchor="start" x="554.388" y="-96.3424" font-family="Times,serif" font-size="14.00" fill="Blue">Send Sync</text>
</a>
</g>
</g>
</g>
</svg>
