<?xml version="1.0" encoding="UTF-8" standalone="no"?>
<!DOCTYPE svg PUBLIC "-//W3C//DTD SVG 1.1//EN"
 "http://www.w3.org/Graphics/SVG/1.1/DTD/svg11.dtd">
<!-- Generated by graphviz version 2.38.0 (20140413.2041)
 -->
<!-- Title: param_server Pages: 1 -->
<svg width="298pt" height="159pt"
 viewBox="0.00 0.00 297.89 158.56" xmlns="http://www.w3.org/2000/svg" xmlns:xlink="http://www.w3.org/1999/xlink">
<g id="graph0" class="graph" transform="scale(1 1) rotate(0) translate(4 154.563)">
<title>param_server</title>
<!-- Down -->
<g id="node1" class="node"><title>Down</title>
<ellipse fill="none" stroke="black" cx="36.4971" cy="-61.5629" rx="32.4945" ry="32.4945"/>
<ellipse fill="none" stroke="black" cx="36.4971" cy="-61.5629" rx="36.4942" ry="36.4942"/>
<text text-anchor="middle" x="36.4971" y="-57.8629" font-family="Times,serif" font-size="14.00">Down</text>
</g>
<!-- Up -->
<g id="node2" class="node"><title>Up</title>
<ellipse fill="none" stroke="black" cx="268.442" cy="-61.5629" rx="21.3963" ry="21.3963"/>
<text text-anchor="middle" x="268.442" y="-57.8629" font-family="Times,serif" font-size="14.00">Up</text>
</g>
<!-- Down&#45;&gt;Up -->
<g id="edge1" class="edge"><title>Down&#45;&gt;Up</title>
<path fill="none" stroke="black" d="M70.3653,-75.9387C77.0694,-78.2729 84.1641,-80.3279 90.9942,-81.5629 151.349,-92.4759 169.416,-96.1319 228.994,-81.5629 232.991,-80.5855 237.035,-79.1129 240.923,-77.4015"/>
<polygon fill="black" stroke="black" points="242.765,-80.3944 250.153,-72.8007 239.642,-74.1296 242.765,-80.3944"/>
<g id="a_edge1&#45;label"><a xlink:title="Tooltip">
<text text-anchor="start" x="136.994" y="-139.363" font-family="Times,serif" font-size="14.00">Connect</text>
<text text-anchor="start" x="146.994" y="-124.363" font-family="Times,serif" font-size="14.00" fill="Red">Start</text>
<text text-anchor="start" x="90.9942" y="-109.363" font-family="Times,serif" font-size="14.00" fill="Blue">Start Paramcmd Channel</text>
<text text-anchor="start" x="102.994" y="-94.3629" font-family="Times,serif" font-size="14.00" fill="Blue">Start Param Channel</text>
</a>
</g>
</g>
<!-- Up&#45;&gt;Down -->
<g id="edge2" class="edge"><title>Up&#45;&gt;Down</title>
<path fill="none" stroke="black" d="M256.771,-43.1363C250.128,-33.59 240.632,-22.8485 228.994,-17.5629 173.151,7.79974 148.731,3.13066 90.9942,-17.5629 83.5917,-20.216 76.4805,-24.3845 69.9946,-29.1212"/>
<polygon fill="black" stroke="black" points="67.7976,-26.3965 62.1389,-35.3536 72.1482,-31.8803 67.7976,-26.3965"/>
<g id="a_edge2&#45;label"><a xlink:title="Tooltip">
<text text-anchor="start" x="129.494" y="-67.3629" font-family="Times,serif" font-size="14.00">Disconnect</text>
<text text-anchor="start" x="147.494" y="-52.3629" font-family="Times,serif" font-size="14.00" fill="Red">Stop</text>
<text text-anchor="start" x="91.4942" y="-37.3629" font-family="Times,serif" font-size="14.00" fill="Blue">Stop Paramcmd Channel</text>
<text text-anchor="start" x="103.494" y="-22.3629" font-family="Times,serif" font-size="14.00" fill="Blue">Stop Param Channel</text>
</a>
</g>
</g>
</g>
</svg>
