<?xml version="1.0" encoding="UTF-8" standalone="no"?>
<!DOCTYPE svg PUBLIC "-//W3C//DTD SVG 1.1//EN"
 "http://www.w3.org/Graphics/SVG/1.1/DTD/svg11.dtd">
<!-- Generated by graphviz version 2.38.0 (20140413.2041)
 -->
<!-- Title: param_client Pages: 1 -->
<svg width="1134pt" height="475pt"
 viewBox="0.00 0.00 1134.18 475.00" xmlns="http://www.w3.org/2000/svg" xmlns:xlink="http://www.w3.org/1999/xlink">
<g id="graph0" class="graph" transform="scale(1 1) rotate(0) translate(4 471)">
<title>param_client</title>
<!-- Down -->
<g id="node1" class="node"><title>Down</title>
<ellipse fill="none" stroke="black" cx="36.4971" cy="-197" rx="32.4945" ry="32.4945"/>
<ellipse fill="none" stroke="black" cx="36.4971" cy="-197" rx="36.4942" ry="36.4942"/>
<text text-anchor="middle" x="36.4971" y="-193.3" font-family="Times,serif" font-size="14.00">Down</text>
</g>
<!-- Connecting -->
<g id="node2" class="node"><title>Connecting</title>
<ellipse fill="none" stroke="black" cx="315.494" cy="-173" rx="51.1914" ry="51.1914"/>
<text text-anchor="middle" x="315.494" y="-169.3" font-family="Times,serif" font-size="14.00">Connecting</text>
</g>
<!-- Down&#45;&gt;Connecting -->
<g id="edge1" class="edge"><title>Down&#45;&gt;Connecting</title>
<path fill="none" stroke="black" d="M50.3032,-162.93C58.9077,-145.223 72.1616,-125.2 90.9942,-115 144.926,-85.791 170.365,-96.9903 228.994,-115 242.516,-119.153 255.82,-126.252 267.758,-134.086"/>
<polygon fill="black" stroke="black" points="265.97,-137.105 276.192,-139.89 269.938,-131.338 265.97,-137.105"/>
<g id="a_edge1&#45;label"><a xlink:title="Tooltip">
<text text-anchor="start" x="136.994" y="-163.8" font-family="Times,serif" font-size="14.00">Connect</text>
<text text-anchor="start" x="146.994" y="-148.8" font-family="Times,serif" font-size="14.00" fill="Red">Start</text>
<text text-anchor="start" x="90.9942" y="-133.8" font-family="Times,serif" font-size="14.00" fill="Blue">Start Paramcmd Channel</text>
<text text-anchor="start" x="102.994" y="-118.8" font-family="Times,serif" font-size="14.00" fill="Blue">Start Param Channel</text>
</a>
</g>
</g>
<!-- Connecting&#45;&gt;Down -->
<g id="edge4" class="edge"><title>Connecting&#45;&gt;Down</title>
<path fill="none" stroke="black" d="M263.966,-177.378C212.401,-181.846 133.079,-188.718 83.2965,-193.032"/>
<polygon fill="black" stroke="black" points="82.8031,-189.561 73.1426,-193.912 83.4074,-196.535 82.8031,-189.561"/>
<g id="a_edge4&#45;label"><a xlink:title="Tooltip">
<text text-anchor="start" x="129.494" y="-254.8" font-family="Times,serif" font-size="14.00">Disconnect</text>
<text text-anchor="start" x="147.494" y="-239.8" font-family="Times,serif" font-size="14.00" fill="Red">Stop</text>
<text text-anchor="start" x="91.4942" y="-224.8" font-family="Times,serif" font-size="14.00" fill="Blue">Stop Paramcmd Channel</text>
<text text-anchor="start" x="103.494" y="-209.8" font-family="Times,serif" font-size="14.00" fill="Blue">Stop Param Channel</text>
<text text-anchor="start" x="120.994" y="-194.8" font-family="Times,serif" font-size="14.00" fill="Blue">Remove Keys</text>
</a>
</g>
</g>
<!-- Syncing -->
<g id="node3" class="node"><title>Syncing</title>
<ellipse fill="none" stroke="black" cx="1086.54" cy="-156" rx="39.7935" ry="39.7935"/>
<text text-anchor="middle" x="1086.54" y="-152.3" font-family="Times,serif" font-size="14.00">Syncing</text>
</g>
<!-- Connecting&#45;&gt;Syncing -->
<g id="edge2" class="edge"><title>Connecting&#45;&gt;Syncing</title>
<path fill="none" stroke="black" d="M363.398,-153.842C375.781,-149.381 389.249,-145.05 401.994,-142 593.318,-96.2124 647.267,-84.1999 842.994,-104 911.796,-110.96 989.714,-129.648 1038.24,-142.613"/>
<polygon fill="black" stroke="black" points="1037.57,-146.057 1048.14,-145.286 1039.4,-139.299 1037.57,-146.057"/>
<g id="a_edge2&#45;label"><a xlink:title="Tooltip">
<text text-anchor="start" x="737.494" y="-122.8" font-family="Times,serif" font-size="14.00">Paramcmd Up</text>
<text text-anchor="start" x="721.994" y="-107.8" font-family="Times,serif" font-size="14.00" fill="Red">Paramcmd State Up</text>
</a>
</g>
</g>
<!-- Trying -->
<g id="node4" class="node"><title>Trying</title>
<ellipse fill="none" stroke="black" cx="625.494" cy="-242" rx="34.394" ry="34.394"/>
<text text-anchor="middle" x="625.494" y="-238.3" font-family="Times,serif" font-size="14.00">Trying</text>
</g>
<!-- Connecting&#45;&gt;Trying -->
<g id="edge3" class="edge"><title>Connecting&#45;&gt;Trying</title>
<path fill="none" stroke="black" d="M358.915,-200.718C372.212,-208.178 387.271,-215.436 401.994,-220 462.017,-238.606 535.104,-242.478 580.729,-242.81"/>
<polygon fill="black" stroke="black" points="580.866,-246.31 590.872,-242.828 580.878,-239.31 580.866,-246.31"/>
<g id="a_edge3&#45;label"><a xlink:title="Tooltip">
<text text-anchor="start" x="442.494" y="-259.8" font-family="Times,serif" font-size="14.00">Param Up</text>
<text text-anchor="start" x="426.994" y="-244.8" font-family="Times,serif" font-size="14.00" fill="Red">Param State Up</text>
</a>
</g>
</g>
<!-- Syncing&#45;&gt;Down -->
<g id="edge7" class="edge"><title>Syncing&#45;&gt;Down</title>
<path fill="none" stroke="black" d="M1064.05,-123.297C1031.1,-77.5531 963.445,-0 883.442,-0 314.494,-0 314.494,-0 314.494,-0 206.904,-0 170.082,-20.0567 90.9942,-93 73.4709,-109.162 60.7686,-132.374 52.1509,-152.77"/>
<polygon fill="black" stroke="black" points="48.8389,-151.625 48.3609,-162.21 55.3349,-154.234 48.8389,-151.625"/>
<g id="a_edge7&#45;label"><a xlink:title="Tooltip">
<text text-anchor="start" x="594.994" y="-63.8" font-family="Times,serif" font-size="14.00">Disconnect</text>
<text text-anchor="start" x="612.994" y="-48.8" font-family="Times,serif" font-size="14.00" fill="Red">Stop</text>
<text text-anchor="start" x="556.994" y="-33.8" font-family="Times,serif" font-size="14.00" fill="Blue">Stop Paramcmd Channel</text>
<text text-anchor="start" x="568.994" y="-18.8" font-family="Times,serif" font-size="14.00" fill="Blue">Stop Param Channel</text>
<text text-anchor="start" x="586.494" y="-3.8" font-family="Times,serif" font-size="14.00" fill="Blue">Remove Keys</text>
</a>
</g>
</g>
<!-- Syncing&#45;&gt;Connecting -->
<g id="edge6" class="edge"><title>Syncing&#45;&gt;Connecting</title>
<path fill="none" stroke="black" d="M1046.61,-156.598C942.218,-158.246 647.303,-163.185 401.994,-170 393.972,-170.223 385.528,-170.485 377.196,-170.761"/>
<polygon fill="black" stroke="black" points="377.002,-167.265 367.126,-171.101 377.239,-174.261 377.002,-167.265"/>
<g id="a_edge6&#45;label"><a xlink:title="Tooltip">
<text text-anchor="start" x="727.494" y="-180.8" font-family="Times,serif" font-size="14.00">Paramcmd Trying</text>
<text text-anchor="start" x="711.994" y="-165.8" font-family="Times,serif" font-size="14.00" fill="Red">Paramcmd State Trying</text>
</a>
</g>
</g>
<!-- Up -->
<g id="node5" class="node"><title>Up</title>
<ellipse fill="none" stroke="black" cx="882.442" cy="-257" rx="21.3963" ry="21.3963"/>
<text text-anchor="middle" x="882.442" y="-253.3" font-family="Times,serif" font-size="14.00">Up</text>
</g>
<!-- Syncing&#45;&gt;Up -->
<g id="edge5" class="edge"><title>Syncing&#45;&gt;Up</title>
<path fill="none" stroke="black" d="M1068.47,-191.46C1059.01,-207.301 1045.73,-224.689 1028.89,-235 993.821,-256.473 945.327,-259.638 914.17,-259.03"/>
<polygon fill="black" stroke="black" points="914.036,-255.523 903.922,-258.681 913.798,-262.519 914.036,-255.523"/>
<g id="a_edge5&#45;label"><a xlink:title="Tooltip">
<text text-anchor="start" x="947.39" y="-292.8" font-family="Times,serif" font-size="14.00">Param Up</text>
<text text-anchor="start" x="931.89" y="-277.8" font-family="Times,serif" font-size="14.00" fill="Red">Param State Up</text>
<text text-anchor="start" x="955.39" y="-262.8" font-family="Times,serif" font-size="14.00" fill="Blue">Synced</text>
</a>
</g>
</g>
<!-- Trying&#45;&gt;Down -->
<g id="edge10" class="edge"><title>Trying&#45;&gt;Down</title>
<path fill="none" stroke="black" d="M593.939,-256.012C577.941,-262.588 557.811,-269.694 538.994,-273 440.938,-290.228 179.575,-315.444 90.9942,-270 77.4772,-263.066 66.5394,-250.956 58.1607,-238.57"/>
<polygon fill="black" stroke="black" points="61.0602,-236.606 52.7686,-230.01 55.1375,-240.337 61.0602,-236.606"/>
<g id="a_edge10&#45;label"><a xlink:title="Tooltip">
<text text-anchor="start" x="284.994" y="-358.8" font-family="Times,serif" font-size="14.00">Disconnect</text>
<text text-anchor="start" x="302.994" y="-343.8" font-family="Times,serif" font-size="14.00" fill="Red">Stop</text>
<text text-anchor="start" x="246.994" y="-328.8" font-family="Times,serif" font-size="14.00" fill="Blue">Stop Paramcmd Channel</text>
<text text-anchor="start" x="258.994" y="-313.8" font-family="Times,serif" font-size="14.00" fill="Blue">Stop Param Channel</text>
<text text-anchor="start" x="276.494" y="-298.8" font-family="Times,serif" font-size="14.00" fill="Blue">Remove Keys</text>
</a>
</g>
</g>
<!-- Trying&#45;&gt;Connecting -->
<g id="edge9" class="edge"><title>Trying&#45;&gt;Connecting</title>
<path fill="none" stroke="black" d="M598.664,-219.916C582.603,-207.565 560.897,-193.237 538.994,-186 486.221,-168.564 422.622,-166.601 376.96,-168.237"/>
<polygon fill="black" stroke="black" points="376.761,-164.743 366.919,-168.665 377.059,-171.736 376.761,-164.743"/>
<g id="a_edge9&#45;label"><a xlink:title="Tooltip">
<text text-anchor="start" x="432.494" y="-204.8" font-family="Times,serif" font-size="14.00">Param Trying</text>
<text text-anchor="start" x="416.994" y="-189.8" font-family="Times,serif" font-size="14.00" fill="Red">Param State Trying</text>
</a>
</g>
</g>
<!-- Trying&#45;&gt;Up -->
<g id="edge8" class="edge"><title>Trying&#45;&gt;Up</title>
<path fill="none" stroke="black" d="M657.491,-255.72C673.435,-262.04 693.385,-268.83 711.994,-272 769.39,-281.777 785.776,-282.766 842.994,-272 846.304,-271.377 849.694,-270.478 853.024,-269.424"/>
<polygon fill="black" stroke="black" points="854.481,-272.619 862.691,-265.922 852.096,-266.037 854.481,-272.619"/>
<g id="a_edge8&#45;label"><a xlink:title="Tooltip">
<text text-anchor="start" x="737.494" y="-312.8" font-family="Times,serif" font-size="14.00">Paramcmd Up</text>
<text text-anchor="start" x="721.994" y="-297.8" font-family="Times,serif" font-size="14.00" fill="Red">Paramcmd State Up</text>
<text text-anchor="start" x="757.494" y="-282.8" font-family="Times,serif" font-size="14.00" fill="Blue">Synced</text>
</a>
</g>
</g>
<!-- Up&#45;&gt;Down -->
<g id="edge13" class="edge"><title>Up&#45;&gt;Down</title>
<path fill="none" stroke="black" d="M876.02,-277.778C870.554,-294.275 860.382,-316.429 842.994,-328 752.059,-388.516 407.927,-411.991 246.994,-374 171.551,-356.19 146.671,-349.935 90.9942,-296 75.0289,-280.534 62.6877,-259.26 53.9028,-240.396"/>
<polygon fill="black" stroke="black" points="57.0198,-238.792 49.7544,-231.081 50.6253,-241.64 57.0198,-238.792"/>
<g id="a_edge13&#45;label"><a xlink:title="Tooltip">
<text text-anchor="start" x="439.994" y="-455.8" font-family="Times,serif" font-size="14.00">Disconnect</text>
<text text-anchor="start" x="457.994" y="-440.8" font-family="Times,serif" font-size="14.00" fill="Red">Stop</text>
<text text-anchor="start" x="401.994" y="-425.8" font-family="Times,serif" font-size="14.00" fill="Blue">Stop Paramcmd Channel</text>
<text text-anchor="start" x="413.994" y="-410.8" font-family="Times,serif" font-size="14.00" fill="Blue">Stop Param Channel</text>
<text text-anchor="start" x="431.494" y="-395.8" font-family="Times,serif" font-size="14.00" fill="Blue">Remove Keys</text>
</a>
</g>
</g>
<!-- Up&#45;&gt;Syncing -->
<g id="edge12" class="edge"><title>Up&#45;&gt;Syncing</title>
<path fill="none" stroke="black" d="M889.101,-236.564C894.708,-220.269 904.954,-198.222 921.89,-186 961.056,-157.736 981.404,-175.826 1028.89,-167 1031.71,-166.477 1034.6,-165.933 1037.52,-165.38"/>
<polygon fill="black" stroke="black" points="1038.3,-168.794 1047.46,-163.48 1036.99,-161.919 1038.3,-168.794"/>
<g id="a_edge12&#45;label"><a xlink:title="Tooltip">
<text text-anchor="start" x="937.39" y="-219.8" font-family="Times,serif" font-size="14.00">Param Trying</text>
<text text-anchor="start" x="921.89" y="-204.8" font-family="Times,serif" font-size="14.00" fill="Red">Param State Trying</text>
<text text-anchor="start" x="938.89" y="-189.8" font-family="Times,serif" font-size="14.00" fill="Blue">Unsync Keys</text>
</a>
</g>
</g>
<!-- Up&#45;&gt;Trying -->
<g id="edge11" class="edge"><title>Up&#45;&gt;Trying</title>
<path fill="none" stroke="black" d="M868.196,-240.901C861.461,-233.985 852.66,-226.661 842.994,-223 785.094,-201.071 712.47,-215.06 667.786,-227.932"/>
<polygon fill="black" stroke="black" points="666.722,-224.597 658.145,-230.817 668.729,-231.303 666.722,-224.597"/>
<g id="a_edge11&#45;label"><a xlink:title="Tooltip">
<text text-anchor="start" x="727.494" y="-256.8" font-family="Times,serif" font-size="14.00">Paramcmd Trying</text>
<text text-anchor="start" x="711.994" y="-241.8" font-family="Times,serif" font-size="14.00" fill="Red">Paramcmd State Trying</text>
<text text-anchor="start" x="740.994" y="-226.8" font-family="Times,serif" font-size="14.00" fill="Blue">Unsync Keys</text>
</a>
</g>
</g>
</g>
</svg>
